<svg width="74" height="74" xmlns="http://www.w3.org/2000/svg" xmlns:xlink="http://www.w3.org/1999/xlink" overflow="hidden" style="fill-rule:evenodd;">
	<defs>
		<clipPath id="clip0">
			<rect x="111" y="139" width="74" height="74"/>
		</clipPath>
		<clipPath id="clip1">
			<rect x="112" y="139" width="73" height="73"/>
		</clipPath>
		<clipPath id="clip2">
			<rect x="112" y="139" width="73" height="73"/>
		</clipPath>
		<clipPath id="clip3">
			<rect x="112" y="139" width="73" height="73"/>
		</clipPath>
	</defs>
	<g clip-path="url(#clip0)" transform="translate(-111 -139)">
		<g clip-path="url(#clip1)">
			<g clip-path="url(#clip2)">
				<g clip-path="url(#clip3)">
					<path d="M159.996 192.078C159.366 185.88 157.567 181.357 152.932 178.181 154.574 174.441 157.259 172.868 161.582 172.868 168.866 172.868 172.822 180.427 172.822 192.078ZM136.57 197.537C136.57 185.89 138.263 178.331 147.642 178.331 154.931 178.331 158.885 185.89 158.885 197.537ZM123.952 192.078C123.952 180.427 125.649 172.868 135.026 172.868 138.215 172.868 140.762 174.2 142.624 177.624 137.2 180.375 135.827 185.462 135.474 192.078ZM134.322 153.236C137.988 153.236 141.101 155.598 142.237 158.883 139.369 160.48 137.488 163.728 137.334 167.079 137.296 167.871 137.389 168.626 137.561 169.343 136.563 169.765 135.472 169.999 134.322 169.999 129.691 169.999 125.942 166.247 125.942 161.616 125.942 156.989 129.691 153.236 134.322 153.236ZM155.317 167.079C155.317 171.705 151.57 175.455 146.94 175.455 142.311 175.455 138.559 171.705 138.559 167.079 138.559 162.453 142.311 158.697 146.94 158.697 151.57 158.697 155.317 162.453 155.317 167.079ZM160.87 153.236C165.5 153.236 169.253 156.989 169.253 161.616 169.253 166.247 165.5 169.999 160.87 169.999 159.265 169.999 157.769 169.537 156.49 168.753 156.596 168.272 156.676 167.792 156.708 167.31 156.723 167.239 156.736 167.165 156.731 167.079 156.736 166.998 156.729 166.923 156.708 166.851 156.506 163.765 155.03 161.192 152.752 159.593 153.655 155.945 156.942 153.236 160.87 153.236ZM148.499 138.999C128.341 138.999 111.999 155.341 111.999 175.499 111.999 195.658 128.341 211.999 148.499 211.999 168.658 211.999 184.999 195.658 184.999 175.499 184.999 155.341 168.658 138.999 148.499 138.999"/>
				</g>
			</g>
		</g>
	</g>
</svg>