<svg width="72" height="71" xmlns="http://www.w3.org/2000/svg" xmlns:xlink="http://www.w3.org/1999/xlink" overflow="hidden"><defs><clipPath id="clip0"><rect x="111" y="252" width="72" height="71"/></clipPath><clipPath id="clip1"><rect x="112" y="252" width="70" height="70"/></clipPath><clipPath id="clip2"><rect x="112" y="252" width="70" height="70"/></clipPath><clipPath id="clip3"><rect x="112" y="252" width="70" height="70"/></clipPath></defs><g clip-path="url(#clip0)" transform="translate(-111 -252)"><g clip-path="url(#clip1)"><g clip-path="url(#clip2)"><g clip-path="url(#clip3)"><path d="M146.969 251.979C127.645 251.979 111.979 267.645 111.979 286.969 111.979 306.293 127.645 321.96 146.969 321.96 166.293 321.96 181.96 306.293 181.96 286.969 181.96 267.645 166.293 251.979 146.969 251.979ZM146.97 264.269 167.676 277.181 126.264 277.181 146.97 264.269ZM167.932 297.799C167.932 299.87 166.253 301.548 164.182 301.548L129.757 301.548C127.686 301.548 126.008 299.87 126.008 297.799L126.008 278.002C126.008 277.783 126.03 277.57 126.067 277.361L145.85 289.697C145.874 289.712 145.9 289.723 145.925 289.736 145.951 289.751 145.978 289.765 146.004 289.778 146.144 289.85 146.288 289.908 146.435 289.946 146.45 289.951 146.465 289.952 146.48 289.956 146.642 289.994 146.805 290.018 146.969 290.018L146.97 290.018C146.971 290.018 146.972 290.018 146.972 290.018 147.136 290.018 147.299 289.995 147.46 289.956 147.476 289.952 147.491 289.951 147.506 289.946 147.653 289.908 147.796 289.85 147.937 289.778 147.963 289.765 147.99 289.751 148.016 289.736 148.041 289.723 148.067 289.712 148.091 289.697L167.874 277.361C167.91 277.57 167.933 277.783 167.933 278.002L167.933 297.799Z" fill="#FFFFFF"/></g></g></g></g></svg>