<svg width="72" height="72" xmlns="http://www.w3.org/2000/svg" xmlns:xlink="http://www.w3.org/1999/xlink" overflow="hidden"><defs><clipPath id="clip0"><rect x="111" y="347" width="72" height="72"/></clipPath><clipPath id="clip1"><rect x="112" y="348" width="70" height="70"/></clipPath><clipPath id="clip2"><rect x="112" y="348" width="70" height="70"/></clipPath><clipPath id="clip3"><rect x="112" y="348" width="70" height="70"/></clipPath></defs><g clip-path="url(#clip0)" transform="translate(-111 -347)"><g clip-path="url(#clip1)"><g clip-path="url(#clip2)"><g clip-path="url(#clip3)"><path d="M112 383C112 363.673 127.673 348 147 348 166.327 348 182 363.673 182 383 182 402.327 166.327 418 147 418 127.673 418 112 402.327 112 383Z" fill="#FFFFFF"/><path d="M129.747 380.771 164.253 380.771 164.253 403.314 129.747 403.314Z" fill="#5355AF"/><path d="M160.218 394.864C159.132 394.864 158.243 393.975 158.243 392.889L158.243 373.703C158.243 367.496 153.193 362.446 146.986 362.446 140.779 362.446 135.728 367.496 135.728 373.703L135.728 392.889C135.728 393.975 134.84 394.864 133.753 394.864 132.667 394.864 131.778 393.975 131.778 392.889L131.778 373.703C131.778 365.324 138.592 358.51 146.972 358.51 155.351 358.51 162.165 365.324 162.165 373.703L162.165 392.889C162.193 393.99 161.305 394.864 160.218 394.864" fill="#5355AF"/><path d="M150.753 390.519C150.753 388.445 149.074 386.767 147 386.767 144.926 386.767 143.247 388.445 143.247 390.519 143.247 391.845 143.925 393.002 144.954 393.665L144.954 395.287C144.954 396.416 145.871 397.333 147 397.333 148.129 397.333 149.046 396.416 149.046 395.287L149.046 393.665C150.075 393.002 150.753 391.831 150.753 390.519" fill="#FFFFFF"/></g></g></g></g></svg>