<svg width="44" height="50" xmlns="http://www.w3.org/2000/svg" xmlns:xlink="http://www.w3.org/1999/xlink" overflow="hidden"><defs><clipPath id="clip0"><rect x="172" y="485" width="44" height="50"/></clipPath><clipPath id="clip1"><rect x="172" y="486" width="44" height="48"/></clipPath><clipPath id="clip2"><rect x="172" y="486" width="44" height="48"/></clipPath><clipPath id="clip3"><rect x="172" y="486" width="44" height="48"/></clipPath></defs><g clip-path="url(#clip0)" transform="translate(-172 -485)"><g clip-path="url(#clip1)"><g clip-path="url(#clip2)"><g clip-path="url(#clip3)"><path d="M64.8041 67.5023 23.2442 67.5023C23.2442 67.5023 23.7826 46.9273 44.0242 46.5546 44.0242 46.5546 64.8041 46.536 64.8041 67.5023" fill="#004AAD" transform="matrix(1.03236 0 0 1 148.562 465.976)"/><path d="M64.8041 67.5023 64.8041 66.9846 23.2442 66.9846 23.2442 67.5023 23.7619 67.5168 23.7619 67.5065C23.7681 67.2373 23.9834 62.1598 26.6278 57.1672 27.9489 54.6699 29.8664 52.1974 32.6619 50.3234 35.4575 48.4494 39.1372 47.1634 44.0324 47.0723L44.0242 46.5546 44.0242 47.0723C44.0242 47.0723 44.1028 47.0723 44.2519 47.0785 44.8131 47.0972 46.36 47.1883 48.3562 47.6128 51.3525 48.2526 55.3491 49.6483 58.5712 52.653 60.1822 54.1584 61.6069 56.0614 62.6319 58.4925 63.659 60.9235 64.2865 63.8847 64.2865 67.5023L64.8041 67.5023 64.8041 66.9846 64.8041 67.5023 65.3218 67.5023C65.3239 62.1867 64.0028 58.1487 62.0003 55.1151 60.4991 52.8414 58.623 51.133 56.6599 49.8575 53.7132 47.9441 50.5739 46.9936 48.1636 46.5173 45.7532 46.0411 44.0697 46.0369 44.0242 46.0369L44.0138 46.0369C38.868 46.1301 34.9273 47.5175 31.9455 49.5572 29.7091 51.0875 28.0131 52.9781 26.7313 54.9474 24.8097 57.9023 23.8136 61.0271 23.2918 63.4167 22.77 65.8084 22.7265 67.465 22.7265 67.4899 22.7223 67.6307 22.7741 67.7653 22.8735 67.8647 22.9708 67.9641 23.1034 68.02 23.2442 68.02L64.8041 68.02C64.9408 68.02 65.0733 67.9662 65.1707 67.8689 65.268 67.7736 65.3218 67.639 65.3218 67.5023L64.8041 67.5023" fill="#004AAD" transform="matrix(1.03236 0 0 1 148.562 465.976)"/><path d="M32.9601 31.61C32.9601 25.4992 37.9134 20.545 44.0242 20.545 50.1349 20.545 55.0882 25.4992 55.0882 31.61 55.0882 37.7208 50.1349 42.6761 44.0242 42.6761 37.9134 42.6761 32.9601 37.7208 32.9601 31.61" fill="#004AAD" transform="matrix(1.03236 0 0 1 148.562 465.976)"/><path d="M32.9601 31.61 33.4778 31.61C33.4778 28.6944 34.6561 26.0625 36.5653 24.1512 38.4766 22.2419 41.1085 21.0616 44.0242 21.0616 46.9398 21.0616 49.5717 22.2419 51.483 24.1512 53.3922 26.0625 54.5705 28.6944 54.5705 31.61 54.5705 34.5236 53.3922 37.1576 51.483 39.0668 49.5717 40.9781 46.9377 42.1563 44.0242 42.1584 41.1085 42.1563 38.4766 40.9781 36.5674 39.0668 34.6561 37.1576 33.4778 34.5236 33.4778 31.61L32.4424 31.61C32.4424 38.0066 37.6255 43.1917 44.0242 43.1938 50.4228 43.1917 55.6059 38.0066 55.6059 31.61 55.6059 25.2114 50.4228 20.0273 44.0242 20.0273 37.6255 20.0273 32.4424 25.2114 32.4424 31.61L32.9601 31.61" fill="#004AAD" transform="matrix(1.03236 0 0 1 148.562 465.976)"/></g></g></g></g></svg>