<svg width="52" height="42" xmlns="http://www.w3.org/2000/svg" xmlns:xlink="http://www.w3.org/1999/xlink" overflow="hidden"><defs><clipPath id="clip0"><rect x="216" y="34" width="52" height="42"/></clipPath><clipPath id="clip1"><rect x="217" y="35" width="50" height="40"/></clipPath><clipPath id="clip2"><rect x="217" y="35" width="50" height="40"/></clipPath><clipPath id="clip3"><rect x="217" y="35" width="50" height="40"/></clipPath></defs><g clip-path="url(#clip0)" transform="translate(-216 -34)"><g clip-path="url(#clip1)"><g clip-path="url(#clip2)"><g clip-path="url(#clip3)"><path d="M267 38.8889C267 41.0367 265.259 42.7778 263.111 42.7778L232.556 42.7778C230.408 42.7778 228.667 41.0367 228.667 38.8889L228.667 38.8889C228.667 36.7411 230.408 35 232.556 35L263.111 35C265.259 35 267 36.7411 267 38.8889ZM263.111 67.2222 232.556 67.2222C230.408 67.2222 228.667 68.9633 228.667 71.1111L228.667 71.1111C228.667 73.2589 230.408 75 232.556 75L263.111 75C265.259 75 267 73.2589 267 71.1111L267 71.1111C267 68.9633 265.259 67.2222 263.111 67.2222ZM267 55C267 52.8522 265.259 51.1111 263.111 51.1111L232.556 51.1111C230.408 51.1111 228.667 52.8522 228.667 55L228.667 55C228.667 57.1478 230.408 58.8889 232.556 58.8889L263.111 58.8889C265.259 58.8889 267 57.1478 267 55ZM220.889 42.7778C223.037 42.7778 224.778 41.0367 224.778 38.8889 224.778 36.7411 223.037 35 220.889 35 218.741 35 217 36.7411 217 38.8889 217 41.0367 218.741 42.7778 220.889 42.7778ZM220.889 58.8889C223.037 58.8889 224.778 57.1478 224.778 55 224.778 52.8522 223.037 51.1111 220.889 51.1111 218.741 51.1111 217 52.8522 217 55 217 57.1478 218.741 58.8889 220.889 58.8889ZM220.889 75C223.037 75 224.778 73.2589 224.778 71.1111 224.778 68.9633 223.037 67.2222 220.889 67.2222 218.741 67.2222 217 68.9633 217 71.1111 217 73.2589 218.741 75 220.889 75Z" fill="#FFFFFF"/></g></g></g></g></svg>