<?xml version="1.0" standalone="no"?>
<!DOCTYPE svg PUBLIC "-//W3C//DTD SVG 20010904//EN"
 "http://www.w3.org/TR/2001/REC-SVG-20010904/DTD/svg10.dtd">
<svg version="1.0" xmlns="http://www.w3.org/2000/svg"
 width="200.000000pt" height="198.000000pt" viewBox="0 0 200.000000 198.000000"
 preserveAspectRatio="xMidYMid meet">

<g transform="translate(0.000000,198.000000) scale(0.100000,-0.100000)"
fill="#000000" stroke="none">
<path d="M63 1960 c-66 -40 -63 14 -63 -970 0 -984 -3 -930 63 -970 31 -19 55
-20 697 -20 642 0 666 1 697 20 57 34 63 60 63 250 l0 171 -30 -23 -30 -22 0
-143 c0 -139 -1 -145 -25 -168 l-24 -25 -651 0 -651 0 -24 25 -25 24 0 881 0
881 25 24 24 25 651 0 651 0 24 -25 25 -24 0 -273 0 -273 30 50 30 50 0 228
c0 253 -4 271 -63 307 -31 19 -55 20 -697 20 -642 0 -666 -1 -697 -20z"/>
<path d="M539 1674 c-9 -11 -10 -20 -2 -32 9 -15 48 -17 379 -20 203 -1 379 0
392 3 26 6 31 49 6 59 -9 3 -183 6 -389 6 -328 0 -374 -2 -386 -16z"/>
<path d="M324 1583 c-21 -27 -41 -52 -46 -57 -4 -6 -16 -2 -27 8 -25 22 -55
17 -59 -10 -3 -23 57 -84 83 -84 18 0 112 116 121 149 6 21 -7 40 -28 41 -4 0
-24 -21 -44 -47z"/>
<path d="M1692 1603 c-11 -10 -133 -228 -270 -486 l-251 -467 -12 -145 c-13
-163 -9 -192 26 -205 36 -14 56 -3 184 102 l114 93 248 465 c275 513 276 516
217 565 -48 41 -163 95 -202 95 -18 0 -43 -8 -54 -17z m142 -81 c38 -20 74
-44 80 -54 9 -16 -16 -75 -76 -175 l-19 -33 -99 50 -98 49 30 58 c63 119 79
143 96 143 9 0 48 -17 86 -38z m-133 -268 c54 -27 89 -50 86 -57 -9 -24 -328
-612 -336 -620 -6 -6 -178 70 -199 87 -1 2 35 72 81 157 46 85 123 227 171
317 48 89 92 162 97 162 5 0 50 -20 100 -46z m-373 -697 l83 -43 -88 -69 c-48
-38 -94 -73 -101 -79 -11 -8 -12 7 -7 80 8 111 14 154 23 153 4 0 44 -19 90
-42z"/>
<path d="M534 1545 c-4 -8 -4 -22 0 -30 5 -13 55 -15 398 -13 l393 3 0 25 0
25 -393 3 c-343 2 -393 0 -398 -13z"/>
<path d="M534 1425 c-4 -8 -4 -22 0 -30 5 -13 55 -15 398 -13 l393 3 0 25 0
25 -393 3 c-343 2 -393 0 -398 -13z"/>
<path d="M537 1133 c-13 -12 -7 -41 9 -47 24 -9 757 -7 772 3 8 5 12 17 10 27
-3 18 -21 19 -394 22 -215 1 -393 -1 -397 -5z"/>
<path d="M319 1035 c-23 -30 -45 -55 -49 -55 -4 0 -13 7 -20 15 -17 21 -54 15
-58 -9 -5 -24 55 -86 82 -86 14 1 38 23 69 66 58 78 63 90 47 109 -19 23 -26
19 -71 -40z"/>
<path d="M534 1005 c-4 -8 -4 -22 0 -30 5 -13 55 -15 370 -15 l365 0 16 30 16
30 -381 0 c-329 0 -381 -2 -386 -15z"/>
<path d="M542 891 c-8 -5 -12 -17 -10 -27 3 -18 19 -19 339 -22 l336 -2 11 25
c7 14 12 28 12 30 0 9 -675 5 -688 -4z"/>
<path d="M534 585 c-4 -8 -4 -22 0 -30 5 -13 46 -15 286 -15 l280 0 0 30 0 30
-280 0 c-240 0 -281 -2 -286 -15z"/>
<path d="M206 524 c-7 -18 5 -44 29 -64 14 -12 13 -16 -11 -41 -46 -48 -6 -83
42 -38 l23 21 27 -21 c56 -44 96 -10 47 41 l-27 28 29 30 c23 24 26 32 15 45
-18 21 -33 19 -60 -10 l-24 -25 -26 25 c-30 29 -55 32 -64 9z"/>
<path d="M534 465 c-4 -8 -4 -22 0 -30 5 -13 45 -15 281 -15 l275 0 0 30 0 30
-275 0 c-236 0 -276 -2 -281 -15z"/>
<path d="M539 344 c-9 -11 -10 -20 -2 -32 9 -15 41 -17 287 -20 l276 -2 -6 27
c-4 16 -9 31 -11 36 -2 4 -123 7 -267 7 -228 0 -265 -2 -277 -16z"/>
</g>
</svg>
