<svg width="28" height="27" xmlns="http://www.w3.org/2000/svg" xmlns:xlink="http://www.w3.org/1999/xlink" overflow="hidden"><defs><clipPath id="clip0"><rect x="26" y="333" width="28" height="27"/></clipPath><clipPath id="clip1"><rect x="27" y="333" width="26" height="26"/></clipPath><clipPath id="clip2"><rect x="27" y="333" width="26" height="26"/></clipPath><clipPath id="clip3"><rect x="27" y="333" width="26" height="26"/></clipPath></defs><g clip-path="url(#clip0)" transform="translate(-26 -333)"><g clip-path="url(#clip1)"><g clip-path="url(#clip2)"><g clip-path="url(#clip3)"><path d="M39.7883 355.093 29.3479 350.269 31.2624 349.385 30.0885 348.842 27 350.269 39.7873 356.178 45.5752 353.51 44.8327 352.768Z" fill="#FFFFFF"/><path d="M39.7883 351.154 29.3479 346.33 31.2624 345.446 30.0885 344.903 27 346.33 39.7873 352.239 42.8787 350.814 42.1371 350.071Z" fill="#FFFFFF"/><path d="M29.3479 342.391 32.8411 340.776 32.0995 340.035 27 342.391 39.7873 348.3 40.1832 348.117 38.8428 346.778Z" fill="#FFFFFF"/><path d="M52.3234 358.865 53.0197 358.169 47.4819 352.631 52.6061 350.269 49.5087 348.842 48.3328 349.385 50.2533 350.269 46.7393 351.888 44.7864 349.934 52.6061 346.33 49.5087 344.903 48.3328 345.446 50.2533 346.33 44.0428 349.193 42.0889 347.239 52.6061 342.391 39.7873 336.481 34.0033 339.154 27.9484 333.098 27.2521 333.795 52.3234 358.865ZM39.7883 337.567 50.2533 342.391 41.3463 346.496 34.7458 339.896 39.7883 337.567Z" fill="#FFFFFF"/></g></g></g></g></svg>