<svg width="32" height="28" xmlns="http://www.w3.org/2000/svg" xmlns:xlink="http://www.w3.org/1999/xlink" overflow="hidden"><defs><clipPath id="clip0"><rect x="24" y="298" width="32" height="28"/></clipPath></defs><g clip-path="url(#clip0)" transform="translate(-24 -298)"><path d="M12.5433 2.15214C9.83436 2.13188 7.12543 3.50472 4.41669 8.55097 3.49603 9.73546 3.11499 9.44658 1.76668 9.07296L3.80815e-05 10.8396 5.36001 16.1996 7.00624 14.5534C7.94297 10.8399 9.26001 12.2563 11.0014 14.0917L14.896 10.1971C10.0154 6.26898 17.4324 4.27351 19.714 3.89345 17.3238 3.27265 14.9337 2.17015 12.5433 2.15225ZM26.8505 3.32711C26.187 3.31498 25.5317 3.52418 24.9836 4.02373L18.0139 10.8803 19.3374 12.2039C20.2072 11.3726 25.4381 6.09643 25.4381 6.09643L26.0769 6.73532 19.9725 12.8398 20.9607 13.828C21.6203 13.2121 27.1554 7.62875 27.1554 7.62875L27.7942 8.26757 21.5972 14.4646 22.8683 15.7349 29.7816 8.82192C31.6962 6.24057 29.2199 3.37018 26.8501 3.32676ZM15.7425 11.221 11.9096 15.0539 24.288 27.7164C27.0733 30.1207 30.8852 26.1704 28.2626 23.7418L15.7421 11.2214ZM13.0738 19.0852 7.1399 24.6497 5.91912 27.1197 6.77082 27.8012 9.59578 25.9132 14.7486 20.7604 13.0735 19.0853Z" fill="#FFFFFF" fill-rule="evenodd" transform="matrix(1.00962 0 0 1 24 295.872)"/></g></svg>