<svg width="27" height="30" xmlns="http://www.w3.org/2000/svg" xmlns:xlink="http://www.w3.org/1999/xlink" overflow="hidden"><defs><clipPath id="clip0"><rect x="26" y="370" width="27" height="30"/></clipPath><clipPath id="clip1"><rect x="26" y="370" width="26" height="29"/></clipPath><clipPath id="clip2"><rect x="26" y="370" width="26" height="29"/></clipPath><clipPath id="clip3"><rect x="26" y="370" width="26" height="29"/></clipPath></defs><g clip-path="url(#clip0)" transform="translate(-26 -370)"><g clip-path="url(#clip1)"><g clip-path="url(#clip2)"><g clip-path="url(#clip3)"><path d="M15.5234 2.87293C14.7807 2.87293 14.0712 3.16642 13.5454 3.69216L12.9282 4.30939 5.74586 4.30939C4.95252 4.29817 4.3003 4.9322 4.28908 5.72554 4.27786 6.51888 4.91189 7.1711 5.70523 7.18232 5.71877 7.18251 5.73231 7.18251 5.74586 7.18232L28.7293 7.18232C29.5226 7.19354 30.1748 6.55951 30.1861 5.76617 30.1973 4.97283 29.5632 4.32061 28.7699 4.30939 28.7564 4.3092 28.7428 4.3092 28.7293 4.30939L21.547 4.30939 20.9297 3.69216C20.4054 3.16642 19.6944 2.87293 18.9518 2.87293L15.5234 2.87293ZM6.2705 10.0552 8.46448 29.108C8.65409 30.5301 9.87856 31.6022 11.3122 31.6022L23.1602 31.6022C24.5938 31.6022 25.8196 30.5318 26.0107 29.0968L28.2046 10.0552 6.2705 10.0552Z" fill="#FFFFFF" transform="matrix(1 0 0 1.00385 21.8343 367.196)"/></g></g></g></g></svg>