<svg width="37" height="22" xmlns="http://www.w3.org/2000/svg" xmlns:xlink="http://www.w3.org/1999/xlink" overflow="hidden"><defs><clipPath id="clip0"><rect x="26" y="207" width="37" height="22"/></clipPath><clipPath id="clip1"><rect x="26" y="208" width="36" height="21"/></clipPath><clipPath id="clip2"><rect x="26" y="208" width="36" height="21"/></clipPath><clipPath id="clip3"><rect x="26" y="208" width="36" height="21"/></clipPath></defs><g clip-path="url(#clip0)" transform="translate(-26 -207)"><g clip-path="url(#clip1)"><g clip-path="url(#clip2)"><g clip-path="url(#clip3)"><path d="M43.8478 220.999 32.2187 209.37C30.9587 208.11 28.9135 208.11 27.6535 209.37L27.6535 209.37C26.3935 210.63 26.3935 212.675 27.6535 213.935L41.6961 227.977C42.8861 229.167 44.8126 229.167 45.9996 227.977L60.0422 213.935C61.3022 212.675 61.3022 210.63 60.0422 209.37L60.0422 209.37C58.7822 208.11 56.737 208.11 55.477 209.37L43.8478 220.999Z" fill="#004AAD"/></g></g></g></g></svg>