<svg width="30" height="31" xmlns="http://www.w3.org/2000/svg" xmlns:xlink="http://www.w3.org/1999/xlink" overflow="hidden"><defs><clipPath id="clip0"><rect x="26" y="425" width="30" height="31"/></clipPath><clipPath id="clip1"><rect x="26" y="426" width="30" height="29"/></clipPath><clipPath id="clip2"><rect x="26" y="426" width="30" height="29"/></clipPath><clipPath id="clip3"><rect x="26" y="426" width="30" height="29"/></clipPath></defs><g clip-path="url(#clip0)" transform="translate(-26 -425)"><g clip-path="url(#clip1)"><g clip-path="url(#clip2)"><g clip-path="url(#clip3)"><path d="M0.461709 14.9617C0.461709 6.95486 6.95486 0.461709 14.9617 0.461709 22.9686 0.461709 29.4617 6.95486 29.4617 14.9617 29.4617 22.9686 22.9686 29.4617 14.9617 29.4617 6.95486 29.4617 0.461709 22.9686 0.461709 14.9617Z" fill="#FFFFFF" transform="matrix(1.03448 0 0 1 25.5224 425.538)"/><path d="M22.8809 12.5363 17.3579 12.5363 17.3579 7.04837C17.3579 6.81459 17.1709 6.62757 16.9371 6.62757L12.9571 6.62757C12.7233 6.62757 12.5363 6.81459 12.5363 7.04837L12.5363 12.5363 7.04837 12.5363C6.81459 12.5363 6.62757 12.7233 6.62757 12.9571L6.62757 17.0014C6.62757 17.2352 6.81459 17.4222 7.04837 17.4222L12.5363 17.4222 12.5363 22.8809C12.5363 23.1147 12.7233 23.3017 12.9571 23.3017L16.9371 23.3017C17.1709 23.3017 17.3579 23.1147 17.3579 22.8809L17.3579 17.4222 22.8809 17.4222C23.1147 17.4222 23.3017 17.2352 23.3017 17.0014L23.3017 12.9571C23.3017 12.7233 23.1088 12.5363 22.8809 12.5363" fill="#004AAD" transform="matrix(1.03448 0 0 1 25.5224 425.538)"/></g></g></g></g></svg>