<svg width="28" height="29" xmlns="http://www.w3.org/2000/svg" xmlns:xlink="http://www.w3.org/1999/xlink" overflow="hidden"><defs><clipPath id="clip0"><rect x="28" y="475" width="28" height="29"/></clipPath><clipPath id="clip1"><rect x="28" y="476" width="28" height="27"/></clipPath><clipPath id="clip2"><rect x="28" y="476" width="28" height="27"/></clipPath><clipPath id="clip3"><rect x="28" y="476" width="28" height="27"/></clipPath></defs><g clip-path="url(#clip0)" transform="translate(-28 -475)"><g clip-path="url(#clip1)"><g clip-path="url(#clip2)"><g clip-path="url(#clip3)"><path d="M5.625 3.375C4.3953 3.375 3.375 4.3953 3.375 5.625L3.375 10.125C3.36621 10.7463 3.86277 11.2571 4.48409 11.2659 5.10541 11.2747 5.61621 10.7781 5.625 10.1568 5.62515 10.1462 5.62515 10.1356 5.625 10.125L5.625 5.625 10.125 5.625C10.7463 5.63379 11.2571 5.13723 11.2659 4.51591 11.2747 3.89459 10.7781 3.38379 10.1568 3.375 10.1462 3.37485 10.1356 3.37485 10.125 3.375L5.625 3.375ZM23.625 3.375C23.0037 3.36621 22.4929 3.86277 22.4841 4.48409 22.4753 5.10541 22.9719 5.61621 23.5932 5.625 23.6038 5.62515 23.6144 5.62515 23.625 5.625L28.125 5.625 28.125 10.125C28.1162 10.7463 28.6128 11.2571 29.2341 11.2659 29.8554 11.2747 30.3662 10.7781 30.375 10.1568 30.3752 10.1462 30.3752 10.1356 30.375 10.125L30.375 5.625C30.375 4.3953 29.3547 3.375 28.125 3.375L23.625 3.375ZM14.77 10.125 10.2415 23.625 13.6472 23.625 14.5173 20.6587 18.9229 20.6587 19.7666 23.625 23.5085 23.625 18.9712 10.125 14.77 10.125ZM16.6509 13.1638 16.8267 13.1638 18.2769 18.189 15.1721 18.189 16.6509 13.1638ZM4.48242 22.4846C3.86197 22.4943 3.3665 23.0045 3.375 23.625L3.375 28.125C3.375 29.3547 4.3953 30.375 5.625 30.375L10.125 30.375C10.7463 30.3838 11.2571 29.8872 11.2659 29.2659 11.2747 28.6446 10.7781 28.1338 10.1568 28.125 10.1462 28.1248 10.1356 28.1248 10.125 28.125L5.625 28.125 5.625 23.625C5.63351 23.0037 5.13672 22.4931 4.5154 22.4846 4.50441 22.4844 4.49341 22.4844 4.48242 22.4846ZM29.2324 22.4846C28.612 22.4943 28.1165 23.0045 28.125 23.625L28.125 28.125 23.625 28.125C23.0037 28.1162 22.4929 28.6128 22.4841 29.2341 22.4753 29.8554 22.9719 30.3662 23.5932 30.375 23.6038 30.3752 23.6144 30.3752 23.625 30.375L28.125 30.375C29.3547 30.375 30.375 29.3547 30.375 28.125L30.375 23.625C30.3835 23.0037 29.8867 22.4931 29.2654 22.4846 29.2544 22.4844 29.2434 22.4844 29.2324 22.4846Z" fill="#FFFFFF" transform="matrix(1.03704 0 0 1 24.5 472.625)"/></g></g></g></g></svg>