<svg width="57" height="58" xmlns="http://www.w3.org/2000/svg" xmlns:xlink="http://www.w3.org/1999/xlink" overflow="hidden"><defs><clipPath id="clip0"><rect x="1193" y="16" width="57" height="58"/></clipPath><clipPath id="clip1"><rect x="1193" y="17" width="57" height="56"/></clipPath><clipPath id="clip2"><rect x="1193" y="17" width="57" height="56"/></clipPath><clipPath id="clip3"><rect x="1193" y="17" width="57" height="56"/></clipPath></defs><g clip-path="url(#clip0)" transform="translate(-1193 -16)"><g clip-path="url(#clip1)"><g clip-path="url(#clip2)"><g clip-path="url(#clip3)"><path d="M33.6387 5.64647C18.1789 5.64647 5.64647 18.1789 5.64647 33.6387 5.64647 49.0985 18.1789 61.631 33.6387 61.631 49.0985 61.631 61.631 49.0985 61.631 33.6387 61.631 18.1789 49.0985 5.64647 33.6387 5.64647ZM33.6382 16.6843C38.3094 16.6843 42.0968 20.4712 42.0968 25.1429 42.0968 29.8141 38.3099 33.6015 33.6382 33.6015 28.9666 33.6015 25.1797 29.8146 25.1797 25.1429 25.1797 20.4712 28.9666 16.6843 33.6382 16.6843ZM33.7186 48.7544 33.5574 48.7544 21.296 48.7544C21.296 40.4183 25.8316 37.4508 28.8064 34.7873 30.2473 35.5617 31.8914 36.006 33.6382 36.0191 35.3845 36.006 37.0282 35.5617 38.4691 34.7873 41.4444 37.4513 45.98 40.4187 45.98 48.7544L33.7186 48.7544Z" fill="#004AAD" transform="matrix(1.01786 0 0 1 1187.24 11.3371)"/></g></g></g></g></svg>