<svg width="29" height="28" xmlns="http://www.w3.org/2000/svg" xmlns:xlink="http://www.w3.org/1999/xlink" overflow="hidden"><defs><clipPath id="clip0"><rect x="1120" y="30" width="29" height="28"/></clipPath><clipPath id="clip1"><rect x="1121" y="31" width="27" height="27"/></clipPath><clipPath id="clip2"><rect x="1121" y="31" width="27" height="27"/></clipPath><clipPath id="clip3"><rect x="1121" y="31" width="27" height="27"/></clipPath></defs><g clip-path="url(#clip0)" transform="translate(-1120 -30)"><g clip-path="url(#clip1)"><g clip-path="url(#clip2)"><g clip-path="url(#clip3)"><path d="M1144.31 34.6639C1140.64 30.9881 1134.68 30.9881 1131 34.6639 1127.88 37.7841 1127.41 42.5497 1129.59 46.1667L1128.89 46.8654C1128.89 46.8654 1128.9 46.8754 1128.91 46.8943L1121.26 54.5403C1120.99 54.8093 1121.07 55.3548 1121.4 55.9465 1121.13 56.4045 1121.19 57.0025 1121.58 57.3961 1121.97 57.7891 1122.57 57.8468 1123.03 57.5763 1123.62 57.9094 1124.17 57.9852 1124.44 57.7164L1132.78 49.3691C1136.41 51.5655 1141.19 51.1018 1144.31 47.974 1147.99 44.2984 1147.99 38.3391 1144.31 34.6639ZM1132.68 46.2961C1129.93 43.5477 1129.93 39.0898 1132.68 36.3419 1135.43 33.5925 1139.89 33.5925 1142.64 36.3411 1145.39 39.0905 1145.38 43.5477 1142.64 46.2961 1139.89 49.0447 1135.43 49.0454 1132.68 46.2961Z"/><path d="M1138.55 36.6204C1134.55 37.0317 1133.04 40.3201 1133 40.398 1132.82 40.782 1132.99 41.2393 1133.38 41.4159 1133.76 41.5953 1134.22 41.4244 1134.39 41.0422 1134.39 41.0422 1134.4 41.0246 1134.44 40.9571 1134.7 40.4695 1135.99 38.4006 1138.7 38.1484 1139.03 38.1163 1139.29 37.8825 1139.37 37.5803 1139.39 37.4953 1139.4 37.4047 1139.39 37.3103 1139.35 36.8885 1138.98 36.578 1138.55 36.6204Z"/></g></g></g></g></svg>