<svg width="39" height="39" xmlns="http://www.w3.org/2000/svg" xmlns:xlink="http://www.w3.org/1999/xlink" overflow="hidden"><defs><clipPath id="clip0"><rect x="337" y="538" width="39" height="39"/></clipPath><clipPath id="clip1"><rect x="337" y="539" width="38" height="37"/></clipPath><clipPath id="clip2"><rect x="337" y="539" width="38" height="37"/></clipPath><clipPath id="clip3"><rect x="337" y="539" width="38" height="37"/></clipPath></defs><g clip-path="url(#clip0)" transform="translate(-337 -538)"><g clip-path="url(#clip1)"><g clip-path="url(#clip2)"><g clip-path="url(#clip3)"><path d="M33.8931 39.542 5.64885 39.542 5.64885 11.2977 22.5954 11.2977 22.5954 8.47328 5.64885 8.47328C4.08977 8.47328 2.82443 9.73863 2.82443 11.2977L2.82443 39.542C2.82443 41.1011 4.08977 42.3664 5.64885 42.3664L33.8931 42.3664C35.4522 42.3664 36.7176 41.1011 36.7176 39.542L36.7176 22.5954 33.8931 22.5954 33.8931 39.542Z" fill="#004AAD" transform="matrix(1.02703 0 0 1 334.099 533.634)"/><path d="M14.1221 31.1139 20.0676 31.1139 34.4778 16.7037 28.4872 10.7131 14.1221 25.0781Z" fill="#004AAD" transform="matrix(1.02703 0 0 1 334.099 533.634)"/><path d="M38.7144 8.47328 36.7176 6.47641C35.6132 5.37206 33.8253 5.37206 32.7238 6.47641L30.484 8.71618 36.4747 14.7068 38.7144 12.467C39.8188 11.3627 39.8188 9.57481 38.7144 8.47328Z" fill="#004AAD" transform="matrix(1.02703 0 0 1 334.099 533.634)"/></g></g></g></g></svg>