<svg width="23" height="27" xmlns="http://www.w3.org/2000/svg" xmlns:xlink="http://www.w3.org/1999/xlink" overflow="hidden"><defs><clipPath id="clip0"><rect x="1284" y="142" width="23" height="27"/></clipPath><clipPath id="clip1"><rect x="1285" y="143" width="21" height="26"/></clipPath><clipPath id="clip2"><rect x="1285" y="143" width="21" height="26"/></clipPath><clipPath id="clip3"><rect x="1285" y="143" width="21" height="26"/></clipPath></defs><g clip-path="url(#clip0)" transform="translate(-1284 -142)"><g clip-path="url(#clip1)"><g clip-path="url(#clip2)"><g clip-path="url(#clip3)"><path d="M18.9198 25.3585C19.5142 25.3585 20.0094 24.883 20.0094 24.2689L20.0094 22.1887 22.0896 22.1887C22.684 22.1887 23.1792 21.7132 23.1792 21.1189L23.1792 4.95283 23.1792 4.87358C23.1792 4.87358 23.1792 4.85377 23.1594 4.83396L23.1594 4.81415C23.1594 4.79434 23.1396 4.79434 23.1396 4.77453 23.1396 4.77453 23.1396 4.75472 23.1198 4.75472 23.1 4.73491 23.1 4.71509 23.0802 4.69528L18.5236 0.138679C18.5038 0.118868 18.484 0.0990566 18.4641 0.0990566 18.4641 0.0990566 18.4443 0.0990566 18.4443 0.0792453 18.4245 0.0792453 18.4047 0.059434 18.4047 0.059434L18.3849 0.059434C18.3651 0.059434 18.3453 0.059434 18.3453 0.0396226L18.266 0.0396226 6.43868 0.0396226C5.84434 0.0396226 5.34906 0.534906 5.34906 1.12925L5.34906 3.16981 3.26887 3.16981C2.67453 3.16981 2.17925 3.64528 2.17925 4.23962L2.17925 24.2689C2.17925 24.8632 2.67453 25.3585 3.26887 25.3585ZM6.14151 1.08962C6.14151 0.931132 6.28019 0.792453 6.43868 0.792453L17.8302 0.792453 17.8302 3.80377C17.8302 4.65566 18.5236 5.34906 19.3755 5.34906L22.3868 5.34906 22.3868 21.1189C22.3868 21.2774 22.2481 21.3962 22.0896 21.3962L20.0094 21.3962 20.0094 8.12264C20.0094 8.02358 19.9698 7.96415 19.8906 7.88491L15.3538 3.36792C15.334 3.16981 15.3142 3.28868 15.2943 3.26887L15.2745 3.22924C15.2547 3.22924 15.2349 3.18962 15.2349 3.18962 15.2349 3.18962 15.2151 3.16981 15.2151 3.16981 15.1953 3.16981 15.1755 3.16981 15.1755 3.15L15.0962 3.15 6.14151 3.15ZM2.9717 24.2689 2.9717 4.23962C2.9717 4.08113 3.11038 3.96226 3.26887 3.96226L14.6604 3.96226 14.6604 6.95377C14.6604 7.80566 15.3736 8.51887 16.2255 8.51887L19.217 8.51887 19.217 24.2689C19.217 24.4274 19.0981 24.566 18.9198 24.566L3.26887 24.566C3.11038 24.566 2.9717 24.4472 2.9717 24.2689Z" fill="#2E3192" transform="matrix(1 0 0 1.0253 1282.82 142.98)"/></g></g></g></g></svg>