<svg width="48" height="48" xmlns="http://www.w3.org/2000/svg" xmlns:xlink="http://www.w3.org/1999/xlink" overflow="hidden"><defs><clipPath id="clip0"><rect x="471" y="176" width="48" height="48"/></clipPath><clipPath id="clip1"><rect x="472" y="177" width="46" height="46"/></clipPath><clipPath id="clip2"><rect x="472" y="177" width="46" height="46"/></clipPath><clipPath id="clip3"><rect x="472" y="177" width="46" height="46"/></clipPath></defs><g clip-path="url(#clip0)" transform="translate(-471 -176)"><g clip-path="url(#clip1)"><g clip-path="url(#clip2)"><g clip-path="url(#clip3)"><path d="M495 211.5C488.66 211.5 483.5 206.34 483.5 200 483.5 193.66 488.66 188.5 495 188.5 501.34 188.5 506.5 193.66 506.5 200 506.5 206.34 501.34 211.5 495 211.5ZM517.179 204.107C517.631 204.107 518 203.738 518 203.286L518 196.714C518 196.262 517.631 195.893 517.182 195.893L512.702 195.893C511.685 195.893 510.768 195.258 510.421 194.311 510.273 193.91 510.11 193.518 509.93 193.133 509.507 192.212 509.709 191.105 510.431 190.38L513.582 187.223C513.742 187.062 513.829 186.857 513.829 186.639 513.829 186.421 513.742 186.215 513.588 186.061L508.942 181.418C508.785 181.258 508.579 181.171 508.361 181.171 508.143 181.171 507.938 181.258 507.784 181.412L504.62 184.569C503.895 185.294 502.788 185.493 501.867 185.07 501.485 184.893 501.097 184.73 500.702 184.585 499.749 184.232 499.107 183.308 499.107 182.285L499.107 177.821C499.107 177.369 498.738 177 498.286 177L491.714 177C491.262 177 490.893 177.369 490.893 177.818L490.893 182.294C490.893 183.312 490.254 184.232 489.308 184.582 488.91 184.73 488.515 184.89 488.133 185.07 487.212 185.493 486.105 185.294 485.38 184.569L482.223 181.418C482.062 181.258 481.857 181.171 481.639 181.171 481.421 181.171 481.215 181.258 481.061 181.412L476.415 186.058C476.258 186.215 476.171 186.421 476.171 186.639 476.171 186.857 476.258 187.062 476.412 187.217L479.569 190.38C480.291 191.105 480.493 192.212 480.07 193.133 479.893 193.515 479.73 193.903 479.585 194.301 479.232 195.251 478.308 195.893 477.285 195.893L472.821 195.893C472.369 195.893 472 196.262 472 196.714L472 203.286C472 203.738 472.369 204.107 472.818 204.107L477.285 204.107C478.308 204.107 479.232 204.749 479.585 205.699 479.73 206.097 479.893 206.485 480.07 206.867 480.493 207.788 480.291 208.895 479.569 209.62L476.418 212.777C476.258 212.938 476.171 213.143 476.171 213.361 476.171 213.579 476.258 213.785 476.415 213.939L481.058 218.585C481.215 218.742 481.421 218.829 481.639 218.829 481.857 218.829 482.062 218.742 482.217 218.588L485.38 215.431C485.852 214.959 486.484 214.712 487.123 214.712 487.466 214.712 487.809 214.783 488.133 214.93 488.515 215.107 488.903 215.27 489.298 215.415 490.251 215.768 490.893 216.692 490.893 217.715L490.893 222.179C490.893 222.631 491.262 223 491.714 223L498.286 223C498.738 223 499.107 222.631 499.107 222.182L499.107 217.709C499.107 216.688 499.746 215.768 500.695 215.418 501.093 215.27 501.485 215.11 501.867 214.93 502.788 214.507 503.895 214.709 504.62 215.431L507.777 218.582C507.938 218.742 508.143 218.829 508.361 218.829 508.579 218.829 508.785 218.742 508.939 218.588L513.582 213.942C513.742 213.785 513.829 213.579 513.829 213.361 513.829 213.143 513.742 212.938 513.588 212.783L510.431 209.62C509.709 208.895 509.507 207.788 509.93 206.867 510.107 206.485 510.27 206.097 510.415 205.699 510.768 204.749 511.692 204.107 512.715 204.107L517.179 204.107" fill="#B0BEC5"/></g></g></g></g></svg>