<svg width="105" height="113" xmlns="http://www.w3.org/2000/svg" xmlns:xlink="http://www.w3.org/1999/xlink" overflow="hidden"><defs><clipPath id="clip0"><rect x="608" y="14" width="105" height="113"/></clipPath><clipPath id="clip1"><rect x="608" y="14" width="104" height="112"/></clipPath><clipPath id="clip2"><rect x="608" y="14" width="104" height="112"/></clipPath><clipPath id="clip3"><rect x="608" y="14" width="104" height="112"/></clipPath><clipPath id="clip4"><rect x="650.639" y="41.5802" width="1.81183" height="7.83994"/></clipPath><clipPath id="clip5"><path d="M657.423 45.3459C657.423 47.7817 655.444 49.757 653.005 49.757 650.564 49.757 648.587 47.7817 648.587 45.3459 648.587 42.91 650.564 40.9347 653.005 40.9347 655.444 40.9347 657.423 42.91 657.423 45.3459"/></clipPath><clipPath id="clip6"><rect x="651.847" y="41.5802" width="3.32172" height="8.44301"/></clipPath><clipPath id="clip7"><path d="M657.423 45.3459C657.423 47.7817 655.444 49.757 653.005 49.757 650.564 49.757 648.587 47.7817 648.587 45.3459 648.587 42.91 650.564 40.9347 653.005 40.9347 655.444 40.9347 657.423 42.91 657.423 45.3459"/></clipPath><clipPath id="clip8"><rect x="651.545" y="47.6109" width="2.41583" height="1.20615"/></clipPath><clipPath id="clip9"><path d="M657.423 45.3459C657.423 47.7817 655.444 49.757 653.005 49.757 650.564 49.757 648.587 47.7817 648.587 45.3459 648.587 42.91 650.564 40.9347 653.005 40.9347 655.444 40.9347 657.423 42.91 657.423 45.3459"/></clipPath><clipPath id="clip10"><rect x="654.564" y="47.6109" width="1.81183" height="2.41229"/></clipPath><clipPath id="clip11"><path d="M657.423 45.3459C657.423 47.7817 655.444 49.757 653.005 49.757 650.564 49.757 648.587 47.7817 648.587 45.3459 648.587 42.91 650.564 40.9347 653.005 40.9347 655.444 40.9347 657.423 42.91 657.423 45.3459"/></clipPath><clipPath id="clip12"><rect x="649.733" y="47.6109" width="1.81183" height="2.41229"/></clipPath><clipPath id="clip13"><path d="M657.423 45.3459C657.423 47.7817 655.444 49.757 653.005 49.757 650.564 49.757 648.587 47.7817 648.587 45.3459 648.587 42.91 650.564 40.9347 653.005 40.9347 655.444 40.9347 657.423 42.91 657.423 45.3459"/></clipPath><clipPath id="clip14"><rect x="652.149" y="45.1987" width="1.81183" height="2.41229"/></clipPath><clipPath id="clip15"><path d="M657.423 45.3459C657.423 47.7817 655.444 49.757 653.005 49.757 650.564 49.757 648.587 47.7817 648.587 45.3459 648.587 42.91 650.564 40.9347 653.005 40.9347 655.444 40.9347 657.423 42.91 657.423 45.3459"/></clipPath><clipPath id="clip16"><rect x="652.149" y="45.1987" width="1.81183" height="1.50768"/></clipPath><clipPath id="clip17"><path d="M657.423 45.3459C657.423 47.7817 655.444 49.757 653.005 49.757 650.564 49.757 648.587 47.7817 648.587 45.3459 648.587 42.91 650.564 40.9347 653.005 40.9347 655.444 40.9347 657.423 42.91 657.423 45.3459"/></clipPath><clipPath id="clip18"><rect x="650.337" y="47.0079" width="5.43555" height="1.20615"/></clipPath><clipPath id="clip19"><path d="M657.423 45.3459C657.423 47.7817 655.444 49.757 653.005 49.757 650.564 49.757 648.587 47.7817 648.587 45.3459 648.587 42.91 650.564 40.9347 653.005 40.9347 655.444 40.9347 657.423 42.91 657.423 45.3459"/></clipPath><clipPath id="clip20"><rect x="650.639" y="47.0079" width="4.83154" height="3.01536"/></clipPath><clipPath id="clip21"><path d="M657.423 45.3459C657.423 47.7817 655.444 49.757 653.005 49.757 650.564 49.757 648.587 47.7817 648.587 45.3459 648.587 42.91 650.564 40.9347 653.005 40.9347 655.444 40.9347 657.423 42.91 657.423 45.3459"/></clipPath><clipPath id="clip22"><rect x="650.941" y="41.5802" width="3.62372" height="5.12612"/></clipPath><clipPath id="clip23"><path d="M657.423 45.3459C657.423 47.7817 655.444 49.757 653.005 49.757 650.564 49.757 648.587 47.7817 648.587 45.3459 648.587 42.91 650.564 40.9347 653.005 40.9347 655.444 40.9347 657.423 42.91 657.423 45.3459"/></clipPath><clipPath id="clip24"><rect x="653.659" y="44.294" width="0.905945" height="0.90461"/></clipPath><clipPath id="clip25"><path d="M657.423 45.3459C657.423 47.7817 655.444 49.757 653.005 49.757 650.564 49.757 648.587 47.7817 648.587 45.3459 648.587 42.91 650.564 40.9347 653.005 40.9347 655.444 40.9347 657.423 42.91 657.423 45.3459"/></clipPath><clipPath id="clip26"><rect x="650.941" y="41.5802" width="3.62372" height="3.3169"/></clipPath><clipPath id="clip27"><path d="M657.423 45.3459C657.423 47.7817 655.444 49.757 653.005 49.757 650.564 49.757 648.587 47.7817 648.587 45.3459 648.587 42.91 650.564 40.9347 653.005 40.9347 655.444 40.9347 657.423 42.91 657.423 45.3459"/></clipPath></defs><g clip-path="url(#clip0)" transform="translate(-608 -14)"><g clip-path="url(#clip1)"><g clip-path="url(#clip2)"><g clip-path="url(#clip3)"><path d="M38.0583 102.441C36.1137 102.441 34.0559 102.002 31.8792 101.009 22.2889 96.6353 21.2477 86.1699 26.7507 78.0025 28.3939 75.5631 30.6 73.457 32.5918 71.2226L34.0123 73.0306C34.136 73.1579 34.3857 73.3711 34.7085 73.6349L34.7085 89.6999 40.8699 89.6999 40.8699 102.131C39.9594 102.333 39.023 102.441 38.0583 102.441M101.545 90.1876C99.0711 90.1876 96.7778 89.5492 94.5811 88.5657L88.8813 56.8349 89.5845 56.8349 89.5845 55.3166 97.5175 55.3166 97.5175 54.412 89.5845 54.412 89.5845 49.0891 95.2136 49.0891C95.4444 49.406 95.6894 49.7181 95.9486 50.0232 97.9156 52.3354 100.456 54.0763 103.09 55.5439 109.418 59.0693 116.862 63.0305 117.293 71.2073 117.674 78.4453 114.153 86.5173 106.97 89.1734 105.054 89.8825 103.256 90.1876 101.545 90.1876M92.6117 87.5868C90.9461 86.6834 89.3207 85.6268 87.6952 84.5515L87.6952 60.2248 92.6117 87.5868M34.7085 70.0282C34.5589 69.7691 34.4022 69.5088 34.2408 69.2473 34.401 69.04 34.5565 68.8303 34.7085 68.6183L34.7085 70.0282M40.8699 60.9162 37.5471 60.9162C37.6473 55.518 33.454 51.9514 29.3692 48.5662 25.8179 45.6238 22.627 42.5213 23.3914 37.5083 24.4774 30.3774 30.156 27.2195 36.2503 27.2195 37.7863 27.2195 39.3493 27.4209 40.8699 27.8085L40.8699 60.9162M94.5999 48.1845 89.5845 48.1845 89.5845 46.2717 92.8614 44.5084C93.2984 45.7876 93.8673 47.0208 94.5999 48.1845M89.5845 43.6403 89.5845 42.8617 90.7518 42.8617 89.5845 43.6403M92.1087 41.9571 89.5845 41.9571 89.5845 31.1937 87.6952 31.1937 87.6952 27.4374C87.6952 26.7802 87.1616 26.249 86.5067 26.249L60.1671 26.249C62.2001 23.6965 63.7313 20.6081 64.8668 17.8342 67.166 12.2193 71.6843 7.16973 78.1591 7.14971 78.1768 7.14971 78.1933 7.14971 78.2098 7.14971 87.952 7.14971 92.4621 16.3795 91.9532 24.9062 91.7565 28.2101 91.4868 31.5129 91.5009 34.8251 91.5103 37.2138 91.6705 39.6178 92.1558 41.9241L92.1087 41.9571" fill="#BCDEF4" transform="matrix(1.00145 0 0 1 594.17 6.90356)"/><path d="M41.44 110.593 34.904 117.884C34.904 118.536 35.4317 119.062 36.0819 119.062L93.0545 119.062C93.7047 119.062 94.2301 118.536 94.2301 117.884L87.6952 110.593 41.44 110.593" fill="#7CC2EB" transform="matrix(1.00145 0 0 1 594.17 6.90356)"/><path d="M42.0596 26.249C41.4035 26.249 40.8699 26.7802 40.8699 27.4374L40.8699 110.315C40.8699 110.971 41.4035 111.501 42.0596 111.501L86.5067 111.501C87.1616 111.501 87.6952 110.971 87.6952 110.315L87.6952 27.4374C87.6952 26.7802 87.1616 26.249 86.5067 26.249L42.0596 26.249" fill="#274596" transform="matrix(1.00145 0 0 1 594.17 6.90356)"/><path d="M40.8699 106.145 87.6952 106.145 87.6952 31.6048 40.8699 31.6048Z" fill="#6347A5" transform="matrix(1.00145 0 0 1 594.17 6.90356)"/><path d="M87.6952 106.145 40.8699 106.145 40.8699 89.6999 75.5007 89.6999 75.5007 86.7317 87.6952 106.145M59.2837 60.9162 40.8699 60.9162 40.8699 31.6048 53.2459 51.3047 53.2459 56.8349 56.7194 56.8349 59.2837 60.9162" fill="#7152AD" transform="matrix(1.00145 0 0 1 594.17 6.90356)"/><path d="M70.7479 29.0488C70.7479 29.4021 70.4617 29.6884 70.1095 29.6884 69.7562 29.6884 69.4699 29.4021 69.4699 29.0488 69.4699 28.6954 69.7562 28.4092 70.1095 28.4092 70.4617 28.4092 70.7479 28.6954 70.7479 29.0488" fill="#13244E" transform="matrix(1.00145 0 0 1 594.17 6.90356)"/><path d="M69.272 29.0488C69.272 29.3656 69.0164 29.6212 68.7008 29.6212L58.392 29.6212C58.0752 29.6212 57.8184 29.3656 57.8184 29.0488 57.8184 28.7319 58.0752 28.4763 58.392 28.4763L68.7008 28.4763C69.0164 28.4763 69.272 28.7319 69.272 29.0488" fill="#13244E" transform="matrix(1.00145 0 0 1 594.17 6.90356)"/><path d="M38.215 110.089C38.215 111.294 32.752 112.269 26.0157 112.269 19.2771 112.269 13.8153 111.294 13.8153 110.089 13.8153 108.885 19.2771 107.909 26.0157 107.909 32.752 107.909 38.215 108.885 38.215 110.089" fill="#7CC2EB" transform="matrix(1.00145 0 0 1 594.17 6.90356)"/><path d="M29.9004 56.3472C29.5494 57.4792 28.5635 58.5581 28.739 59.8514 28.9416 61.3544 30.9593 61.9975 30.4481 63.6889 30.2773 64.2508 29.7861 64.6088 29.6165 65.2025 29.4398 65.8279 29.686 66.6454 29.3833 67.1931 29.0064 67.8727 27.6259 68.1154 26.9215 68.1071 26.4798 68.1024 26.3043 67.8928 25.9439 67.656 25.4127 67.305 24.7778 67.1849 24.329 66.7125 23.4704 65.8091 23.4798 64.5841 23.5375 63.3956 23.5846 62.4533 23.415 61.5028 23.4998 60.5593 23.6164 59.2566 24.3361 58.2624 24.7943 57.0916 25.1688 56.1376 24.8791 55.0857 25.3008 54.121 25.6848 53.247 26.4551 53.1399 27.2254 52.737 27.4115 52.6404 27.6012 52.3978 27.799 52.3413 28.0747 52.2612 28.8426 52.4508 29.1136 52.5533 29.428 52.6711 29.6318 52.9019 29.759 53.1988 30.1642 54.1469 30.2019 55.3719 29.9004 56.3472" fill="#F06049" transform="matrix(1.00145 0 0 1 594.17 6.90356)"/><path d="M30.4186 64.0281C29.7979 63.067 28.8214 62.8067 28.8214 62.8067L26.4822 61.9398 24.2489 61.9398 21.9108 62.8067C21.9108 62.8067 20.9344 63.067 20.3125 64.0281L30.4186 64.0281" fill="#F7AC80" transform="matrix(1.00145 0 0 1 594.17 6.90356)"/><path d="M40.129 76.0448 35.2444 71.4323C33.7285 68.8233 31.7909 65.5488 29.8026 63.3956 29.8026 63.3956 28.5776 62.8668 27.8509 64.2048 27.8509 64.2048 27.4504 65.5146 28.9969 66.5688L34.2055 72.9564C34.2055 72.9564 37.5683 75.8434 39.5366 77.152L40.129 76.0448" fill="#F7AC80" transform="matrix(1.00145 0 0 1 594.17 6.90356)"/><path d="M39.9959 77.5549 38.8781 76.5749 39.619 75.6008 40.3187 76.2097 39.9959 77.5549" fill="#F7AC80" transform="matrix(1.00145 0 0 1 594.17 6.90356)"/><path d="M41.0125 76.8152 41.5708 77.2946C41.95 76.8858 41.1832 76.3841 41.1832 76.3841 41.1832 76.3841 40.1679 75.8269 39.566 76.7669 39.3622 77.0637 39.9571 77.8694 39.9571 77.8694 40.2386 78.1332 40.7474 78.4512 40.7474 78.4512 40.9889 78.5596 41.0867 78.2722 41.0867 78.2722 41.3776 78.3676 41.3646 78.0637 41.3646 78.0637 41.6674 78.0849 41.5861 77.8022 41.5861 77.8022 41.9442 77.7869 41.8052 77.4312 41.8052 77.4312L41.0125 76.8152" fill="#F9AC7F" transform="matrix(1.00145 0 0 1 594.17 6.90356)"/><path d="M28.4693 63.027C28.4693 63.027 29.5682 62.8126 30.3067 63.729 30.3067 63.729 33.6519 67.8668 35.3033 71.1154 35.3033 71.1154 37.8487 73.6007 39.9453 75.7009 39.9453 75.7009 39.5095 76.6868 39.0866 76.9636 39.0866 76.9636 34.6884 73.7291 34.0123 73.0306L30.1984 68.1754 28.4422 65.2107C28.4422 65.2107 27.5858 63.6936 28.4693 63.027" fill="#5171B8" transform="matrix(1.00145 0 0 1 594.17 6.90356)"/><path d="M25.6848 110.33C25.6212 109.379 22.1405 108.63 22.6517 108.773 22.6517 108.773 22.2701 108.445 21.7931 108.653 21.7931 108.653 21.5975 108.815 21.6635 109.173 21.6635 109.173 21.7389 109.528 21.7106 109.844 21.7106 109.844 21.7766 109.935 21.9839 109.925L22.2383 109.586 23.1523 110.142C23.1523 110.142 24.4998 110.858 25.6848 110.33" fill="#52397C" transform="matrix(1.00145 0 0 1 594.17 6.90356)"/><path d="M21.8048 108.871C21.8048 108.871 23.5893 109.994 24.3432 109.692 24.3432 109.692 24.6953 109.592 24.3432 109.416 24.3432 109.416 23.7024 109.109 22.647 108.85L21.8048 108.871" fill="#F7AC80" transform="matrix(1.00145 0 0 1 594.17 6.90356)"/><path d="M30.6601 110.142C30.5965 109.188 27.1159 108.44 27.6271 108.582 27.6271 108.582 27.2454 108.254 26.7684 108.462 26.7684 108.462 26.5729 108.625 26.6388 108.982 26.6388 108.982 26.7142 109.339 26.686 109.654 26.686 109.654 26.7519 109.744 26.9592 109.734L27.2136 109.395 28.1277 109.952C28.1277 109.952 29.4752 110.668 30.6601 110.142" fill="#52397C" transform="matrix(1.00145 0 0 1 594.17 6.90356)"/><path d="M26.7802 108.681C26.7802 108.681 28.5647 109.804 29.3185 109.502 29.3185 109.502 29.6707 109.402 29.3185 109.226 29.3185 109.226 28.6777 108.919 27.6224 108.66L26.7802 108.681" fill="#F7AC80" transform="matrix(1.00145 0 0 1 594.17 6.90356)"/><path d="M21.4185 78.8505 26.0958 78.8505 25.137 95.4044 22.647 108.85 21.8048 108.871 22.1323 95.0758 21.4185 78.8505" fill="#F7AC80" transform="matrix(1.00145 0 0 1 594.17 6.90356)"/><path d="M24.4998 78.6668 26.7802 108.681 27.6224 108.66 29.5882 78.6668 24.4998 78.6668" fill="#F7AC80" transform="matrix(1.00145 0 0 1 594.17 6.90356)"/><path d="M21.0569 79.165C21.0569 79.165 20.6917 80.3629 21.1134 82.6398 21.1134 82.6398 21.6505 84.555 21.8048 89.6505 21.8048 89.6505 25.872 90.4043 29.7437 89.4997L29.7932 79.165 21.0569 79.165" fill="#52397C" transform="matrix(1.00145 0 0 1 594.17 6.90356)"/><path d="M26.4822 62.736 24.2489 62.736 24.2489 59.7466 26.4822 59.7466 26.4822 62.736" fill="#F7AC80" transform="matrix(1.00145 0 0 1 594.17 6.90356)"/><path d="M29.7932 66.4451C29.7932 66.4451 30.3244 68.2544 28.8049 69.6867L30.0629 79.165 20.8072 79.165C21.3195 75.8729 22.4338 72.9199 22.4338 72.9199 22.72 69.8751 21.21 67.3215 21.21 67.3215L19.8543 65.2708C20.1558 63.2743 21.9108 62.8067 21.9108 62.8067L23.6411 62.1647C23.6411 62.1647 24.6706 63.14 26.2219 63.3037 26.2219 63.3037 27.0334 62.9633 27.2113 62.2107L28.9569 62.8514C28.9569 62.8514 28.3338 63.7949 29.7932 66.4451" fill="#FFFFFF" transform="matrix(1.00145 0 0 1 594.17 6.90356)"/><path d="M23.7625 59.0057C23.8579 59.2248 23.9886 59.4285 24.1735 59.6052 24.9933 60.3932 26.0888 60.9456 27.2384 60.9456 30.2384 59.6347 29.2655 53.8584 29.2655 53.8584 28.8144 51.0939 26.4504 51.0998 26.4504 51.0998 24.6635 51.022 23.0334 51.8666 22.7589 53.7476 22.6541 54.4697 22.7931 55.2435 22.8284 55.9644 22.8555 56.4944 22.9203 57.0221 23.0899 57.5274 23.263 58.0434 23.5481 58.5086 23.7625 59.0057" fill="#F7AC80" transform="matrix(1.00145 0 0 1 594.17 6.90356)"/><path d="M28.8049 59.3178C28.474 60.0281 27.9769 60.6229 27.2384 60.9456 26.0888 60.9456 24.9933 60.3932 24.1735 59.6052 23.9886 59.4285 23.8579 59.2248 23.7625 59.0057 23.7236 58.915 23.6812 58.8266 23.6388 58.7383 25.0711 60.3661 27.1583 61.9398 28.8049 59.3178" fill="#E8A178" transform="matrix(1.00145 0 0 1 594.17 6.90356)"/><path d="M23.4491 56.8985C23.4491 56.8985 23.2124 55.9149 22.4562 56.3213 22.4562 56.3213 22.1146 56.4944 22.3608 57.1694 22.3608 57.1694 22.72 58.1411 23.4491 57.7866L23.4491 56.8985" fill="#F7AC80" transform="matrix(1.00145 0 0 1 594.17 6.90356)"/><path d="M21.3655 78.4654 20.6128 79.1921 16.389 72.9199C15.3972 71.6843 16.1228 70.6549 16.1228 70.6549L19.8225 64.7408C20.8932 62.4887 22.1111 63.2731 22.1111 63.2731 23.7566 64.9999 22.3855 66.8598 22.3855 66.8598L18.177 71.4817C18.177 71.4817 19.8543 74.1991 21.3655 78.4654" fill="#F7AC80" transform="matrix(1.00145 0 0 1 594.17 6.90356)"/><path d="M20.2748 79.5749C19.985 79.7551 19.6599 79.4701 19.4797 79.8376 19.1358 80.542 20.3136 80.6727 20.687 80.4925 21.0981 80.2934 21.6352 79.6915 21.68 79.2239 21.7141 78.8588 21.3372 78.1768 20.9026 78.2828 20.3231 78.4265 20.7436 79.284 20.2748 79.5749" fill="#F7AC80" transform="matrix(1.00145 0 0 1 594.17 6.90356)"/><path d="M29.249 54.4414C29.514 55.3213 29.3974 55.2 29.3974 55.2 30.0806 53.3884 29.4163 52.1681 29.4163 52.1681 28.0063 49.0833 24.4939 50.3259 24.4939 50.3259 21.4185 51.0951 22.2713 55.1399 22.2713 55.1399 22.4621 56.8372 23.4491 57.3402 23.4491 57.3402 23.1087 56.4638 23.4491 55.5522 23.4491 55.5522 23.6388 54.4473 24.2489 54.5474 24.2489 54.5474 24.2489 54.5474 27.9439 53.6782 27.852 52.2989 27.852 52.2989 28.0228 53.6652 29.249 54.4414" fill="#F06049" transform="matrix(1.00145 0 0 1 594.17 6.90356)"/><path d="M24.9615 80.7069 24.9615 64.6772 23.4491 62.2366 21.9108 62.8067 21.8967 62.8102 21.8838 62.8149 21.8519 62.8255 21.826 62.8338 21.7648 62.8562 21.7259 62.8715 21.6517 62.9021 21.6022 62.9245 21.5339 62.9563 21.4739 62.9869C21.4444 63.0022 21.415 63.0187 21.3832 63.0364 21.3537 63.0529 21.3243 63.0694 21.2925 63.0894 21.263 63.1059 21.2336 63.1247 21.2029 63.1436L21.1311 63.193C21.1028 63.2119 21.0757 63.2319 21.0475 63.2531L20.9721 63.3096 20.9579 63.3191C20.6022 63.5252 20.2029 63.941 19.8225 64.7408L16.1228 70.6549C16.1228 70.6549 15.3972 71.6843 16.389 72.9199L19.9426 78.1968C20.2453 77.8128 20.5528 77.4277 20.8272 77.0236 19.4821 73.5972 18.177 71.4817 18.177 71.4817L21.4809 67.8527C21.7165 69.2862 22.0039 70.2132 22.4338 72.9199 22.4338 72.9199 20.9697 76.8281 20.2983 80.7069L24.9615 80.7069" fill="#5679C5" transform="matrix(1.00145 0 0 1 594.17 6.90356)"/><path d="M29.6354 65.9069C30.6719 68.2815 29.0146 69.4688 29.0146 69.4688 28.9487 69.5418 29.1041 70.6831 29.0523 71.5571L30.7202 80.7069 27.2596 80.7069 27.196 64.1872 27.7449 62.4062 28.9145 62.8373 28.9204 62.8385 28.9569 62.8514 28.9569 62.8526C29.1065 62.9092 29.3656 63.0234 29.6471 63.2248 29.6471 63.2248 28.9757 64.8138 29.6354 65.9069" fill="#5679C5" transform="matrix(1.00145 0 0 1 594.17 6.90356)"/><path d="M21.581 54.7642C21.7082 55.955 22.402 57.0963 21.4833 58.2165 20.6069 59.286 18.8943 60.4757 19.786 62.0729 20.2583 62.9209 20.5692 63.1494 20.1664 64.1872 19.8507 65.0023 19.3348 65.6041 19.4703 66.5417 19.6034 67.4781 20.4467 68.1778 21.4091 68.2626 22.3007 68.3403 22.7212 68.3356 23.4491 68.0694 24.4409 67.7066 24.885 66.9151 25.0475 65.7891 25.1794 64.8797 24.7554 64.2967 24.6494 63.4333 24.5234 62.3921 25.3903 62.2001 25.8049 61.3979 26.2855 60.4674 26.0228 59.8208 25.4409 59.1364 24.9144 58.518 24.9945 57.7795 24.9721 56.9503 24.9427 55.8407 25.7319 55.9927 26.0299 55.1258 26.3255 54.2612 25.9922 52.4025 25.2925 51.8065 24.66 51.267 23.4362 50.7193 22.9215 51.3094 22.3573 51.9561 21.4185 53.2565 21.581 54.7642" fill="#F06049" transform="matrix(1.00145 0 0 1 594.17 6.90356)"/><path d="M34.7085 68.6183 34.7085 60.9162 37.5471 60.9162C37.5342 61.6394 37.4435 62.3968 37.2656 63.1895 36.8051 65.2343 35.8734 66.9952 34.7085 68.6183" fill="#8FA1D4" transform="matrix(1.00145 0 0 1 594.17 6.90356)"/><path d="M40.8699 89.6999 34.7085 89.6999 34.7085 73.6349C36.1525 74.8057 39.0866 76.9636 39.0866 76.9636 39.1137 76.9459 39.142 76.9247 39.1691 76.9011 39.2963 76.9895 39.4188 77.0743 39.5366 77.152L39.579 77.1897C39.6956 77.5148 39.9571 77.8694 39.9571 77.8694 40.2386 78.1332 40.7474 78.4512 40.7474 78.4512 40.7863 78.4677 40.8205 78.476 40.8523 78.476 40.8582 78.476 40.864 78.4748 40.8699 78.4748L40.8699 89.6999M40.8699 76.2674C40.7675 76.2404 40.6461 76.2203 40.5142 76.2203 40.4494 76.2203 40.3811 76.225 40.3128 76.2368L40.3187 76.2097 40.129 76.0448 39.8899 75.8187C39.9253 75.7457 39.9453 75.7009 39.9453 75.7009 37.8487 73.6007 35.3033 71.1154 35.3033 71.1154 35.1231 70.7609 34.9228 70.3969 34.7085 70.0282L34.7085 68.6183C35.8734 66.9952 36.8051 65.2343 37.2656 63.1895 37.4435 62.3968 37.5342 61.6394 37.5471 60.9162L40.8699 60.9162 40.8699 76.2674" fill="#6E95CF" transform="matrix(1.00145 0 0 1 594.17 6.90356)"/><path d="M75.5007 86.7317 59.2837 60.9162 75.5007 60.9162 75.5007 86.7317" fill="#49409C" transform="matrix(1.00145 0 0 1 594.17 6.90356)"/><path d="M75.5007 89.6999 40.8699 89.6999 40.8699 78.4748C41.0231 78.4607 41.0867 78.2722 41.0867 78.2722 41.1255 78.2851 41.1597 78.291 41.1891 78.291 41.3741 78.291 41.3646 78.0637 41.3646 78.0637 41.3752 78.0637 41.3858 78.0649 41.3964 78.0649 41.6615 78.0649 41.5861 77.8022 41.5861 77.8022 41.9442 77.7869 41.8052 77.4312 41.8052 77.4312L41.5943 77.2675C41.9182 76.8635 41.1832 76.3841 41.1832 76.3841 41.1832 76.3841 41.0584 76.3157 40.8699 76.2674L40.8699 60.9162 59.2837 60.9162 75.5007 86.7317 75.5007 89.6999" fill="#4F47A1" transform="matrix(1.00145 0 0 1 594.17 6.90356)"/><path d="M39.5366 77.152C39.4188 77.0743 39.2963 76.9895 39.1691 76.9011 39.182 76.8894 39.1962 76.8776 39.2091 76.8646L39.5366 77.152M40.129 76.0448 39.884 75.8316C39.8852 75.8269 39.8876 75.8222 39.8899 75.8187L40.129 76.0448" fill="#92767C" transform="matrix(1.00145 0 0 1 594.17 6.90356)"/><path d="M39.579 77.1897 39.5366 77.152 39.2091 76.8646C39.4942 76.5949 39.7663 76.0743 39.884 75.8316L40.129 76.0448 40.3187 76.2097 40.3128 76.2368C40.0548 76.2828 39.7827 76.4276 39.566 76.7669 39.4977 76.8658 39.5189 77.0236 39.579 77.1897" fill="#92767C" transform="matrix(1.00145 0 0 1 594.17 6.90356)"/><path d="M40.8523 78.476C40.8205 78.476 40.7863 78.4677 40.7474 78.4512 40.7474 78.4512 40.2386 78.1332 39.9571 77.8694 39.9571 77.8694 39.6956 77.5148 39.579 77.1897 39.5189 77.0236 39.4977 76.8658 39.566 76.7669 39.7827 76.4276 40.0548 76.2828 40.3128 76.2368 40.3811 76.225 40.4494 76.2203 40.5142 76.2203 40.6461 76.2203 40.7675 76.2404 40.8699 76.2674 41.0584 76.3157 41.1832 76.3841 41.1832 76.3841 41.1832 76.3841 41.9182 76.8635 41.5943 77.2675L41.8052 77.4312C41.8052 77.4312 41.9442 77.7869 41.5861 77.8022 41.5861 77.8022 41.6615 78.0649 41.3964 78.0649 41.3858 78.0649 41.3752 78.0637 41.3646 78.0637 41.3646 78.0637 41.3741 78.291 41.1891 78.291 41.1597 78.291 41.1255 78.2851 41.0867 78.2722 41.0867 78.2722 41.0231 78.4607 40.8699 78.4748 40.864 78.4748 40.8582 78.476 40.8523 78.476" fill="#92767C" transform="matrix(1.00145 0 0 1 594.17 6.90356)"/><path d="M39.0866 76.9636C39.0866 76.9636 36.1525 74.8057 34.7085 73.6349L34.7085 70.0282C34.9228 70.3969 35.1231 70.7609 35.3033 71.1154 35.3033 71.1154 37.8487 73.6007 39.9453 75.7009 39.9453 75.7009 39.9253 75.7457 39.8899 75.8187 39.8876 75.8222 39.8852 75.8269 39.884 75.8316 39.7663 76.0743 39.4942 76.5949 39.2091 76.8646 39.1962 76.8776 39.182 76.8894 39.1691 76.9011 39.142 76.9247 39.1137 76.9459 39.0866 76.9636" fill="#3B5AA6" transform="matrix(1.00145 0 0 1 594.17 6.90356)"/><path d="M73.4453 87.601 32.6554 87.601 32.6554 58.8172 73.4453 58.8172 73.4453 87.601" fill="#ACE2F2" transform="matrix(1.00145 0 0 1 594.17 6.90356)"/><path d="M73.4453 61.5134 32.6554 61.5134 32.6554 58.8172 73.4453 58.8172 73.4453 61.5134" fill="#677BC4" transform="matrix(1.00145 0 0 1 594.17 6.90356)"/><path d="M68.4051 60.0834C68.4051 60.4992 68.0671 60.8373 67.6513 60.8373 67.2343 60.8373 66.8974 60.4992 66.8974 60.0834 66.8974 59.6665 67.2343 59.3296 67.6513 59.3296 68.0671 59.3296 68.4051 59.6665 68.4051 60.0834" fill="#ACE4F7" transform="matrix(1.00145 0 0 1 594.17 6.90356)"/><path d="M70.5159 60.0834C70.5159 60.4992 70.1778 60.8373 69.762 60.8373 69.3451 60.8373 69.0082 60.4992 69.0082 60.0834 69.0082 59.6665 69.3451 59.3296 69.762 59.3296 70.1778 59.3296 70.5159 59.6665 70.5159 60.0834" fill="#6347A5" transform="matrix(1.00145 0 0 1 594.17 6.90356)"/><path d="M72.5336 60.0834C72.5336 60.4992 72.1967 60.8373 71.7797 60.8373 71.3628 60.8373 71.0259 60.4992 71.0259 60.0834 71.0259 59.6665 71.3628 59.3296 71.7797 59.3296 72.1967 59.3296 72.5336 59.6665 72.5336 60.0834" fill="#653082" transform="matrix(1.00145 0 0 1 594.17 6.90356)"/><path d="M43.6332 72.3275 35.2314 72.3275 35.2314 63.9257 43.6332 63.9257 43.6332 72.3275" fill="#48BADF" transform="matrix(1.00145 0 0 1 594.17 6.90356)"/><path d="M43.6332 83.6351 35.2314 83.6351 35.2314 75.2333 43.6332 75.2333 43.6332 83.6351" fill="#48BADF" transform="matrix(1.00145 0 0 1 594.17 6.90356)"/><path d="M42.1444 79.6303 42.2563 79.6385C42.261 79.5726 42.2657 79.5042 42.2657 79.4348 42.2657 79.3641 42.261 79.2969 42.2563 79.231L42.2516 79.1627 42.188 79.1356C42.036 79.0708 41.9288 79.0048 41.8664 78.9412 41.804 78.8776 41.784 78.8258 41.7828 78.7598 41.7804 78.6691 41.837 78.5313 41.9748 78.3546L42.0172 78.2981 41.9854 78.2357C41.9288 78.1202 41.8641 78.0083 41.7922 77.9035L41.7522 77.8458 41.6827 77.8552C41.6026 77.867 41.5319 77.8729 41.4706 77.8729 41.3222 77.8729 41.2398 77.8399 41.1938 77.7928 41.1467 77.7469 41.1138 77.6644 41.1138 77.516 41.1138 77.4548 41.1196 77.3841 41.1314 77.3052L41.142 77.2357 41.0831 77.1956C40.9771 77.1226 40.8664 77.0578 40.751 77.0013L40.6885 76.9695 40.632 77.0119C40.4553 77.1485 40.3175 77.205 40.2268 77.2039 40.1609 77.2027 40.109 77.1827 40.0454 77.1202 39.9818 77.0578 39.9159 76.9506 39.8511 76.7987L39.824 76.7351 39.7557 76.7304C39.6897 76.7245 39.6214 76.7209 39.5531 76.7209 39.4824 76.7209 39.4141 76.7245 39.3481 76.7304L39.2798 76.7351 39.2527 76.7987C39.1879 76.9506 39.122 77.0578 39.0595 77.1202 38.9948 77.1827 38.9429 77.2027 38.877 77.2039 38.7863 77.205 38.6485 77.1485 38.4718 77.0119L38.4152 76.9695 38.3528 77.0013C38.2374 77.0578 38.1267 77.1226 38.0206 77.1956L37.9629 77.2357 37.9724 77.304C37.9841 77.3841 37.99 77.4548 37.99 77.516 37.99 77.6644 37.957 77.7469 37.9099 77.7928 37.864 77.8399 37.7815 77.8729 37.6331 77.8729 37.5719 77.8729 37.5012 77.867 37.4223 77.8552L37.3528 77.8458 37.3127 77.9035C37.2397 78.0083 37.1749 78.1202 37.1184 78.2357L37.0866 78.2981 37.1302 78.3546C37.2668 78.5313 37.3233 78.6691 37.321 78.7598 37.3198 78.8258 37.2998 78.8776 37.2374 78.9412 37.1749 79.0048 37.0677 79.0708 36.9158 79.1356L36.8534 79.1627 36.8475 79.231C36.8428 79.2969 36.8392 79.3653 36.8392 79.4348 36.8392 79.5042 36.8428 79.5714 36.8475 79.6385L36.8522 79.7068 36.9158 79.7339C37.0677 79.7987 37.1749 79.8647 37.2374 79.9271 37.2998 79.9919 37.3198 80.0425 37.321 80.1097 37.3233 80.2004 37.2656 80.3382 37.1302 80.516L37.0866 80.5714 37.1184 80.6338C37.1749 80.7493 37.2397 80.86 37.3127 80.966L37.3516 81.0237 37.4223 81.0143C37.5024 81.0025 37.5731 80.9966 37.6331 80.9966 37.7815 80.9966 37.864 81.0296 37.9099 81.0767 37.957 81.1227 37.9888 81.2051 37.99 81.3535 37.99 81.4136 37.9841 81.4854 37.9724 81.5655L37.9629 81.635 38.0206 81.6739C38.1255 81.7469 38.2374 81.8117 38.3528 81.8682L38.4152 81.8989 38.4718 81.8565C38.6485 81.7198 38.7863 81.6633 38.877 81.6645 38.9429 81.6657 38.9948 81.6869 39.0584 81.7493 39.122 81.8117 39.1879 81.9189 39.2527 82.0708L39.2798 82.1333 39.3481 82.1392C39.4153 82.1451 39.4836 82.1474 39.5531 82.1474 39.6214 82.1474 39.6897 82.1451 39.7568 82.1392L39.824 82.1333 39.8511 82.0708C39.9159 81.9189 39.9818 81.8117 40.0454 81.7493 40.109 81.6869 40.1609 81.6657 40.2268 81.6645 40.3175 81.6633 40.4541 81.7198 40.632 81.8577L40.6885 81.9001 40.751 81.8682C40.8664 81.8117 40.9771 81.7469 41.0831 81.6751L41.1408 81.635 41.1314 81.5644C41.1196 81.4843 41.1138 81.4136 41.1138 81.3535 41.1138 81.2051 41.1467 81.1227 41.1927 81.0767 41.2398 81.0296 41.3222 80.9966 41.4695 80.9966 41.5319 80.9966 41.6026 81.0025 41.6827 81.0143L41.7522 81.0237 41.7922 80.966C41.8641 80.86 41.9288 80.7493 41.9854 80.6338L42.0172 80.5714 41.9748 80.5149C41.8381 80.3382 41.7804 80.2004 41.7828 80.1097 41.784 80.0425 41.804 79.9919 41.8664 79.9271 41.9288 79.8647 42.036 79.7987 42.188 79.7339L42.2516 79.7068 42.2563 79.6385 42.1444 79.6303 42.0996 79.5255C41.9324 79.5973 41.8016 79.6727 41.7074 79.7669 41.612 79.8611 41.5555 79.9813 41.5566 80.1097 41.5578 80.2852 41.6461 80.4572 41.7946 80.6527L41.8841 80.5844 41.7828 80.5337C41.731 80.6397 41.6721 80.741 41.6049 80.8388L41.698 80.9024 41.7145 80.7905C41.6261 80.7775 41.5449 80.7705 41.4695 80.7705 41.2928 80.7705 41.1408 80.8093 41.0337 80.9165 40.9265 81.0237 40.8876 81.1757 40.8876 81.3535 40.8876 81.4277 40.8947 81.509 40.9076 81.5973L41.0195 81.5808 40.9559 81.4878C40.8593 81.5538 40.7569 81.6138 40.6508 81.6657L40.7015 81.767 40.7698 81.6774C40.5743 81.529 40.4023 81.4407 40.2268 81.4383 40.0984 81.4371 39.9783 81.4949 39.8852 81.5891 39.791 81.6845 39.7144 81.8152 39.6438 81.9825L39.7474 82.0261 39.738 81.9142C39.6767 81.9189 39.6143 81.9212 39.5531 81.9212 39.4895 81.9212 39.4282 81.9189 39.3658 81.9142L39.3564 82.0261 39.4612 81.9825C39.3893 81.8152 39.3128 81.6845 39.2185 81.5891 39.1255 81.4949 39.0054 81.4371 38.877 81.4383 38.7015 81.4407 38.5295 81.529 38.334 81.6763L38.4023 81.767 38.4529 81.6645C38.3469 81.6138 38.2444 81.5538 38.149 81.4878L38.0854 81.5808 38.1973 81.5962C38.2091 81.509 38.215 81.4277 38.215 81.3535 38.2162 81.1757 38.1761 81.0237 38.0701 80.9165 37.9629 80.8093 37.811 80.7705 37.6331 80.7705 37.5589 80.7705 37.4776 80.7775 37.3893 80.7905L37.4058 80.9024 37.4989 80.8388C37.4329 80.741 37.3728 80.6397 37.321 80.5337L37.2197 80.5844 37.3092 80.6527C37.4576 80.4572 37.546 80.2852 37.5471 80.1097 37.5483 79.9813 37.4918 79.8611 37.3964 79.7669 37.3021 79.6727 37.1714 79.5973 37.0041 79.5255L36.9606 79.6303 37.0725 79.6209C37.0677 79.5584 37.0654 79.4972 37.0654 79.4348 37.0654 79.3723 37.0677 79.3099 37.0725 79.2486L36.9606 79.2392 37.0041 79.3441C37.1714 79.2722 37.3021 79.1956 37.3964 79.1014 37.4918 79.0084 37.5483 78.8882 37.5471 78.7598 37.546 78.5843 37.4576 78.4124 37.3092 78.2168L37.2197 78.2851 37.321 78.3358C37.3728 78.2298 37.4329 78.1273 37.4989 78.0319L37.4058 77.9671 37.3893 78.079C37.4776 78.092 37.5577 78.099 37.6331 78.099 37.811 78.099 37.9629 78.059 38.0701 77.953 38.1761 77.8458 38.2162 77.6939 38.2162 77.516 38.2162 77.4418 38.2091 77.3605 38.1973 77.2722L38.0854 77.2887 38.149 77.3817C38.2444 77.3158 38.3469 77.2569 38.4529 77.2039L38.4023 77.1026 38.334 77.1921C38.5295 77.3405 38.7015 77.4288 38.877 77.43 39.0054 77.4312 39.1255 77.3747 39.2185 77.2792 39.314 77.1838 39.3893 77.0543 39.4612 76.887L39.3564 76.8423 39.3646 76.9553C39.4282 76.9506 39.4906 76.9471 39.5531 76.9471 39.6131 76.9471 39.6767 76.9506 39.7392 76.9553L39.7474 76.8423 39.6438 76.887C39.7144 77.0531 39.791 77.1838 39.8852 77.2792 39.9783 77.3747 40.0984 77.4312 40.2268 77.43 40.4023 77.4288 40.5743 77.3405 40.7698 77.1921L40.7015 77.1026 40.6508 77.2039C40.7569 77.2557 40.8593 77.3158 40.9559 77.3817L41.0195 77.2887 40.9076 77.271C40.8947 77.3605 40.8876 77.4418 40.8876 77.516 40.8876 77.6939 40.9265 77.8458 41.0337 77.953 41.1408 78.059 41.2928 78.099 41.4706 78.099 41.5449 78.099 41.6261 78.092 41.7145 78.079L41.698 77.9671 41.6049 78.0319C41.6709 78.1273 41.731 78.2298 41.7828 78.3358L41.8841 78.2851 41.7946 78.2168C41.6461 78.4124 41.5578 78.5843 41.5566 78.7598 41.5555 78.8882 41.612 79.0084 41.7074 79.1014 41.8028 79.1968 41.9324 79.2722 42.0996 79.3441L42.1444 79.2392 42.0313 79.2475C42.036 79.3111 42.0396 79.3735 42.0396 79.4348 42.0396 79.496 42.036 79.5584 42.0313 79.622L42.1444 79.6303 42.0996 79.5255 42.1444 79.6303" fill="#B3E6F0" transform="matrix(1.00145 0 0 1 594.17 6.90356)"/><path d="M40.7627 79.4348 40.6497 79.4348C40.6485 80.0402 40.1585 80.5314 39.5531 80.5325 39.2492 80.5325 38.9759 80.4089 38.7768 80.211 38.5778 80.0119 38.4541 79.7375 38.4541 79.4348 38.4553 78.8281 38.9465 78.3382 39.5531 78.337 40.1585 78.3382 40.6485 78.8281 40.6497 79.4348L40.8758 79.4348C40.8758 78.7033 40.2833 78.1108 39.5531 78.1108 38.8216 78.1108 38.228 78.7033 38.228 79.4348 38.228 80.165 38.8216 80.7587 39.5531 80.7587 40.2833 80.7587 40.8758 80.165 40.8758 79.4348L40.7627 79.4348" fill="#B3E6F0" transform="matrix(1.00145 0 0 1 594.17 6.90356)"/><path d="M39.5519 81.1085C39.089 81.1085 38.672 80.9212 38.3681 80.6185 38.0654 80.3146 37.8781 79.8977 37.8781 79.4348 37.8781 78.9719 38.0654 78.5549 38.3681 78.251 38.672 77.9483 39.089 77.761 39.5519 77.761L39.5519 77.5348C38.5024 77.5348 37.652 78.3853 37.652 79.4348 37.652 80.4842 38.5024 81.3347 39.5519 81.3347L39.5519 81.1085" fill="#B3E6F0" transform="matrix(1.00145 0 0 1 594.17 6.90356)"/><path d="M39.5519 77.761C39.599 77.761 39.6461 77.7622 39.6932 77.7669L39.7121 77.5407C39.6591 77.5372 39.6061 77.5348 39.5519 77.5348L39.5519 77.761" fill="#B3E6F0" transform="matrix(1.00145 0 0 1 594.17 6.90356)"/><path d="M39.9806 77.8164C40.076 77.8411 40.1679 77.8753 40.2551 77.9153L40.3505 77.7104C40.2515 77.6644 40.1467 77.6255 40.0383 77.5973L39.9818 77.8164ZM40.5083 78.0614C40.5884 78.1167 40.6638 78.1791 40.7321 78.2475L40.8923 78.0873C40.8134 78.0095 40.7286 77.9389 40.6379 77.8753ZM40.9206 78.4713C40.9771 78.5502 41.0266 78.635 41.0678 78.7233L41.2728 78.6267C41.2256 78.5266 41.1691 78.4312 41.1055 78.3405ZM41.1679 78.9966C41.1938 79.0896 41.2103 79.1862 41.2198 79.284L41.4447 79.264C41.4341 79.1521 41.4153 79.0437 41.387 78.9377ZM41.2198 79.5761C41.2115 79.675 41.195 79.7716 41.1703 79.8635L41.3894 79.9224C41.4176 79.8164 41.4365 79.7068 41.4459 79.5949ZM41.0713 80.1379C41.0301 80.2275 40.9818 80.3123 40.9265 80.3912L41.1114 80.5208C41.175 80.4301 41.2292 80.3347 41.2763 80.2334ZM40.7392 80.615C40.6697 80.6845 40.5955 80.7469 40.5154 80.8035L40.6461 80.9884C40.7368 80.9248 40.8205 80.8529 40.8994 80.7752L40.738 80.615ZM40.2633 80.9507C40.1762 80.9907 40.0843 81.0249 39.9889 81.0508L40.0478 81.2687C40.1561 81.2404 40.2598 81.2016 40.3599 81.1545L40.2633 80.9507" fill="#B3E6F0" transform="matrix(1.00145 0 0 1 594.17 6.90356)"/><path d="M39.6932 81.1026C39.6461 81.1062 39.599 81.1085 39.5519 81.1085L39.5519 81.3347C39.6061 81.3347 39.6591 81.3323 39.7121 81.3276L39.6932 81.1026" fill="#B3E6F0" transform="matrix(1.00145 0 0 1 594.17 6.90356)"/><path d="M41.4471 70.7091 41.334 70.7091C41.334 70.9022 41.1774 71.0577 40.9854 71.0577L38.0536 71.0577C37.8616 71.0577 37.705 70.9022 37.705 70.7091L37.705 67.7773C37.705 67.5842 37.8616 67.4287 38.0536 67.4287L40.9854 67.4287C41.1774 67.4287 41.334 67.5842 41.334 67.7773L41.334 70.7091 41.5602 70.7091 41.5602 67.7773C41.5602 67.4593 41.3034 67.2025 40.9854 67.2025L38.0536 67.2025C37.7356 67.2025 37.4788 67.4593 37.4788 67.7773L37.4788 70.7091C37.4788 71.0271 37.7356 71.2839 38.0536 71.2839L40.9854 71.2839C41.3034 71.2839 41.5602 71.0271 41.5602 70.7091L41.4471 70.7091" fill="#B3E6F0" transform="matrix(1.00145 0 0 1 594.17 6.90356)"/><path d="M38.1172 69.0612 38.1172 68.0906C38.1172 67.9528 38.2291 67.8409 38.3669 67.8409L38.7038 67.8409 38.7038 67.6148 38.3669 67.6148C38.1043 67.616 37.8911 67.828 37.8911 68.0906L37.8911 69.0612 38.1172 69.0612" fill="#B3E6F0" transform="matrix(1.00145 0 0 1 594.17 6.90356)"/><path d="M38.4129 70.8716 38.7922 70.8716 38.7922 70.6454 38.4129 70.6454Z" fill="#B3E6F0" transform="matrix(1.00145 0 0 1 594.17 6.90356)"/><path d="M38.983 70.8716 39.3622 70.8716 39.3622 70.6454 38.983 70.6454Z" fill="#B3E6F0" transform="matrix(1.00145 0 0 1 594.17 6.90356)"/><path d="M39.5531 70.8716 39.9323 70.8716 39.9323 70.6454 39.5531 70.6454Z" fill="#B3E6F0" transform="matrix(1.00145 0 0 1 594.17 6.90356)"/><path d="M40.122 70.8716 40.5013 70.8716 40.5013 70.6454 40.122 70.6454Z" fill="#B3E6F0" transform="matrix(1.00145 0 0 1 594.17 6.90356)"/><path d="M39.5201 69.9858C39.109 69.9847 38.778 69.6525 38.7768 69.2438 38.778 68.8327 39.109 68.5017 39.5201 68.5005L39.5201 68.2744C38.9841 68.2744 38.5507 68.7078 38.5507 69.2438 38.5507 69.7774 38.9841 70.212 39.5201 70.212L39.5201 69.9858" fill="#B3E6F0" transform="matrix(1.00145 0 0 1 594.17 6.90356)"/><path d="M39.5201 68.5005C39.5637 68.5005 39.6072 68.5052 39.6497 68.5123L39.6897 68.2897C39.6343 68.2791 39.5778 68.2744 39.5201 68.2744L39.5201 68.5005" fill="#B3E6F0" transform="matrix(1.00145 0 0 1 594.17 6.90356)"/><path d="M39.9229 68.6195C40.0054 68.6737 40.0772 68.7444 40.1326 68.8256L40.3199 68.6972C40.2468 68.5912 40.1538 68.5005 40.0466 68.431ZM40.2468 69.0954C40.2563 69.1437 40.261 69.1931 40.261 69.2438 40.261 69.2933 40.2563 69.3415 40.2468 69.3887L40.4695 69.4334C40.4812 69.371 40.4871 69.3086 40.4871 69.2438 40.4871 69.1778 40.4812 69.113 40.4683 69.0506ZM40.1338 69.6596C40.0784 69.7408 40.0077 69.8115 39.9253 69.8645L40.049 70.0542C40.1561 69.9835 40.2492 69.8928 40.321 69.7856L40.1338 69.6596" fill="#B3E6F0" transform="matrix(1.00145 0 0 1 594.17 6.90356)"/><path d="M39.6497 69.9741C39.6072 69.9823 39.5637 69.9858 39.5201 69.9858L39.5201 70.212C39.5778 70.212 39.6343 70.2061 39.6897 70.1967L39.6497 69.9741" fill="#B3E6F0" transform="matrix(1.00145 0 0 1 594.17 6.90356)"/><path d="M38.6638 67.3156 38.6638 67.4287 40.4871 67.4287 40.4871 66.1047C40.4871 65.7726 40.2174 65.5028 39.8852 65.5028L39.1538 65.5028C38.8204 65.5028 38.5507 65.7726 38.5507 66.1047L38.5507 67.4287 38.6638 67.4287 38.6638 67.3156 38.7768 67.3156 38.7768 66.1047C38.778 65.8974 38.9465 65.729 39.1538 65.729L39.8852 65.729C40.0925 65.729 40.261 65.8974 40.261 66.1047L40.261 67.2025 38.6638 67.2025 38.6638 67.3156 38.7768 67.3156ZM40.9064 67.3156 40.9064 67.2025 38.2444 67.2025 38.2444 66.1047C38.2456 65.6041 38.652 65.1978 39.1538 65.1966L39.8852 65.1966C40.3858 65.1978 40.7934 65.6041 40.7934 66.1047L40.7934 67.3156 40.9064 67.3156 40.9064 67.2025 40.9064 67.3156 41.0195 67.3156 41.0195 66.1047C41.0195 65.4793 40.5119 64.9704 39.8852 64.9704L39.1538 64.9704C38.5271 64.9704 38.0183 65.4793 38.0183 66.1047L38.0183 67.4287 41.0195 67.4287 41.0195 67.3156 40.9064 67.3156" fill="#B3E6F0" transform="matrix(1.00145 0 0 1 594.17 6.90356)"/><path d="M38.2998 67.232 38.526 67.232 38.526 67.0812 38.2998 67.0812Z" fill="#B3E6F0" transform="matrix(1.00145 0 0 1 594.17 6.90356)"/><path d="M38.526 66.5323 38.2998 66.5323 38.2998 66.8068 38.526 66.8068ZM38.526 66.2567 38.526 66.1895 38.5248 66.1754C38.5248 66.146 38.5271 66.0812 38.5424 66.0046L38.321 65.9622C38.3022 66.0564 38.2998 66.1342 38.2998 66.1754L38.2998 66.2072 38.4129 66.199 38.2998 66.199 38.2998 66.2567ZM38.6214 65.7796C38.6567 65.7149 38.7038 65.6548 38.7674 65.6053L38.6284 65.4263C38.5366 65.4981 38.4706 65.5841 38.4235 65.6701L38.6214 65.7796" fill="#B3E6F0" transform="matrix(1.00145 0 0 1 594.17 6.90356)"/><path d="M38.9735 65.5028C39.0136 65.4911 39.056 65.4828 39.1043 65.4781L39.0796 65.2531C39.0195 65.259 38.9641 65.2708 38.9123 65.2849L38.9747 65.5028" fill="#B3E6F0" transform="matrix(1.00145 0 0 1 594.17 6.90356)"/><path d="M39.6956 69.2897 39.8087 68.7102 39.2692 68.7102 39.3622 69.3038C39.2939 69.3568 39.248 69.4405 39.248 69.5347 39.248 69.6949 39.3787 69.8256 39.5389 69.8256 39.7003 69.8256 39.8299 69.6949 39.8299 69.5347 39.8299 69.4311 39.7769 69.3415 39.6956 69.2897" fill="#B3E6F0" transform="matrix(1.00145 0 0 1 594.17 6.90356)"/><path d="M71.0259 64.378C71.0259 64.6536 70.8021 64.8774 70.5265 64.8774L47.5273 64.8774C47.2517 64.8774 47.0279 64.6536 47.0279 64.378 47.0279 64.1023 47.2517 63.8786 47.5273 63.8786L70.5265 63.8786C70.8021 63.8786 71.0259 64.1023 71.0259 64.378" fill="#FFFFFF" transform="matrix(1.00145 0 0 1 594.17 6.90356)"/><path d="M71.0259 67.1295C71.0259 67.4051 70.8021 67.6289 70.5265 67.6289L47.5273 67.6289C47.2517 67.6289 47.0279 67.4051 47.0279 67.1295 47.0279 66.8539 47.2517 66.6301 47.5273 66.6301L70.5265 66.6301C70.8021 66.6301 71.0259 66.8539 71.0259 67.1295" fill="#FFFFFF" transform="matrix(1.00145 0 0 1 594.17 6.90356)"/><path d="M71.0259 69.8798C71.0259 70.1566 70.8021 70.3792 70.5265 70.3792L47.5273 70.3792C47.2517 70.3792 47.0279 70.1566 47.0279 69.8798 47.0279 69.6042 47.2517 69.3816 47.5273 69.3816L70.5265 69.3816C70.8021 69.3816 71.0259 69.6042 71.0259 69.8798" fill="#FFFFFF" transform="matrix(1.00145 0 0 1 594.17 6.90356)"/><path d="M58.0386 72.6313C58.0386 72.907 57.8148 73.1308 57.5392 73.1308L47.5273 73.1308C47.2517 73.1308 47.0279 72.907 47.0279 72.6313 47.0279 72.3557 47.2517 72.1319 47.5273 72.1319L57.5392 72.1319C57.8148 72.1319 58.0386 72.3557 58.0386 72.6313" fill="#FFFFFF" transform="matrix(1.00145 0 0 1 594.17 6.90356)"/><path d="M71.0259 75.3075C71.0259 75.5831 70.8021 75.8069 70.5265 75.8069L47.5273 75.8069C47.2517 75.8069 47.0279 75.5831 47.0279 75.3075 47.0279 75.0319 47.2517 74.8081 47.5273 74.8081L70.5265 74.8081C70.8021 74.8081 71.0259 75.0319 71.0259 75.3075" fill="#FFFFFF" transform="matrix(1.00145 0 0 1 594.17 6.90356)"/><path d="M71.0259 78.059C71.0259 78.3346 70.8021 78.5584 70.5265 78.5584L47.5273 78.5584C47.2517 78.5584 47.0279 78.3346 47.0279 78.059 47.0279 77.7834 47.2517 77.5596 47.5273 77.5596L70.5265 77.5596C70.8021 77.5596 71.0259 77.7834 71.0259 78.059" fill="#FFFFFF" transform="matrix(1.00145 0 0 1 594.17 6.90356)"/><path d="M71.0259 80.8105C71.0259 81.0861 70.8021 81.3099 70.5265 81.3099L47.5273 81.3099C47.2517 81.3099 47.0279 81.0861 47.0279 80.8105 47.0279 80.5349 47.2517 80.3111 47.5273 80.3111L70.5265 80.3111C70.8021 80.3111 71.0259 80.5349 71.0259 80.8105" fill="#FFFFFF" transform="matrix(1.00145 0 0 1 594.17 6.90356)"/><path d="M64.4015 83.5609C64.4015 83.8377 64.1777 84.0603 63.9021 84.0603L47.5273 84.0603C47.2517 84.0603 47.0279 83.8377 47.0279 83.5609 47.0279 83.2852 47.2517 83.0626 47.5273 83.0626L63.9021 83.0626C64.1777 83.0626 64.4015 83.2852 64.4015 83.5609" fill="#FFFFFF" transform="matrix(1.00145 0 0 1 594.17 6.90356)"/><path d="M37.1019 58.6888C36.9547 59.7854 38.7686 60.0658 39.1373 59.2919 39.705 58.0999 38.1314 58.1541 37.0513 58.167 36.7697 58.5098 36.5789 58.5899 36.5495 58.8172 36.7639 58.8679 37.0442 58.8667 37.1773 58.7642L37.1019 58.6888" fill="#F7AC80" transform="matrix(1.00145 0 0 1 594.17 6.90356)"/><path d="M114.399 116.346C114.399 117.551 108.844 118.526 101.993 118.526 95.1417 118.526 89.588 117.551 89.588 116.346 89.588 115.142 95.1417 114.166 101.993 114.166 108.844 114.166 114.399 115.142 114.399 116.346" fill="#7CC2EB" transform="matrix(1.00145 0 0 1 594.17 6.90356)"/><path d="M98.653 116.106 84.9413 39.7769 84.0508 39.9371 97.7637 116.266 98.653 116.106" fill="#4F5EB5" transform="matrix(1.00145 0 0 1 594.17 6.90356)"/><path d="M99.5281 116.106 85.8165 39.7769 84.926 39.9371 98.6377 116.266 99.5281 116.106" fill="#4F5EB5" transform="matrix(1.00145 0 0 1 594.17 6.90356)"/><path d="M108.075 116.106 94.3632 39.7769 93.4727 39.9371 107.184 116.266" fill="#4F5EB5" transform="matrix(1.00145 0 0 1 594.17 6.90356)"/><path d="M94.3761 39.9371 108.089 116.266 108.979 116.106 95.2666 39.7769" fill="#4F5EB5" transform="matrix(1.00145 0 0 1 594.17 6.90356)"/><path d="M84.9543 42.8617 95.2807 42.8617 95.2807 41.9571 84.9543 41.9571Z" fill="#4F5EB5" transform="matrix(1.00145 0 0 1 594.17 6.90356)"/><path d="M86.0733 49.0891 96.3985 49.0891 96.3985 48.1845 86.0733 48.1845Z" fill="#4F5EB5" transform="matrix(1.00145 0 0 1 594.17 6.90356)"/><path d="M87.1922 55.3166 97.5175 55.3166 97.5175 54.412 87.1922 54.412Z" fill="#4F5EB5" transform="matrix(1.00145 0 0 1 594.17 6.90356)"/><path d="M88.3112 61.5452 98.6365 61.5452 98.6365 60.6406 88.3112 60.6406Z" fill="#4F5EB5" transform="matrix(1.00145 0 0 1 594.17 6.90356)"/><path d="M89.4302 67.7726 99.7555 67.7726 99.7555 66.868 89.4302 66.868Z" fill="#4F5EB5" transform="matrix(1.00145 0 0 1 594.17 6.90356)"/><path d="M90.548 74 100.874 74 100.874 73.0954 90.548 73.0954Z" fill="#4F5EB5" transform="matrix(1.00145 0 0 1 594.17 6.90356)"/><path d="M91.6682 80.2275 101.993 80.2275 101.993 79.3229 91.6682 79.3229Z" fill="#4F5EB5" transform="matrix(1.00145 0 0 1 594.17 6.90356)"/><path d="M92.786 86.4561 103.111 86.4561 103.111 85.5515 92.786 85.5515Z" fill="#4F5EB5" transform="matrix(1.00145 0 0 1 594.17 6.90356)"/><path d="M93.905 92.6835 104.23 92.6835 104.23 91.7789 93.905 91.7789Z" fill="#4F5EB5" transform="matrix(1.00145 0 0 1 594.17 6.90356)"/><path d="M95.0239 98.9121 105.349 98.9121 105.349 98.0075 95.0239 98.0075Z" fill="#4F5EB5" transform="matrix(1.00145 0 0 1 594.17 6.90356)"/><path d="M96.1429 105.14 106.468 105.14 106.468 104.235 96.1429 104.235Z" fill="#4F5EB5" transform="matrix(1.00145 0 0 1 594.17 6.90356)"/><path d="M97.2619 111.367 107.587 111.367 107.587 110.462 97.2619 110.462Z" fill="#4F5EB5" transform="matrix(1.00145 0 0 1 594.17 6.90356)"/><path d="M77.5396 45.3635C77.6326 44.7534 77.9542 44.8818 78.4206 44.9148 78.7787 44.9418 78.7233 44.9725 79.0896 44.9866 79.0896 44.9866 78.7728 44.9595 78.6126 44.7098 78.4524 44.4601 78.7375 44.327 78.7375 44.327L79.5231 44.7334C79.6845 44.8205 79.8517 44.8959 80.0084 44.9913 80.1862 45.0997 80.3723 45.3247 80.4477 45.519 80.5832 45.8677 80.3853 46.2222 80.0355 46.3282 79.8223 46.393 79.5914 46.3871 79.3641 46.3812 79.2616 46.3789 79.1603 46.3765 79.0602 46.38 79.0602 46.38 77.7634 46.2658 77.5396 45.3635" fill="#F7AC80" transform="matrix(1.00145 0 0 1 594.17 6.90356)"/><path d="M80.3252 45.2987 86.6881 44.8076C86.6881 44.8076 87.7506 44.6839 88.6493 44.2634L93.8319 40.8075C93.8319 40.8075 95.7837 39.1915 96.3361 40.3116 96.3361 40.3116 97.0746 42.0372 94.6282 43.5578L89.4479 46.3447C89.4479 46.3447 88.2888 46.8724 87.4102 46.8406L80.0084 46.2952 80.3252 45.2987" fill="#F7AC80" transform="matrix(1.00145 0 0 1 594.17 6.90356)"/><path d="M97.0016 40.9488C97.0016 40.9488 97.2937 42.6061 95.3549 43.6627L92.4691 45.36C92.4691 45.36 90.4797 42.8994 91.2453 41.5802L94.9003 40.0148C94.9003 40.0148 96.3184 39.5566 97.0016 40.9488" fill="#66BBEB" transform="matrix(1.00145 0 0 1 594.17 6.90356)"/><path d="M93.9332 85.8518C93.9968 84.8989 97.4775 84.1498 96.9663 84.2923 96.9663 84.2923 97.3479 83.9637 97.8249 84.1734 97.8249 84.1734 98.0205 84.3347 97.9545 84.6916 97.9545 84.6916 97.8791 85.0485 97.9074 85.3642 97.9074 85.3642 97.8414 85.4549 97.6341 85.4455L97.3797 85.1062 96.4657 85.6622C96.4657 85.6622 95.1182 86.3783 93.9332 85.8518" fill="#52397C" transform="matrix(1.00145 0 0 1 594.17 6.90356)"/><path d="M97.8131 84.3913C97.8131 84.3913 96.0287 85.5138 95.2748 85.2122 95.2748 85.2122 94.9238 85.1121 95.2748 84.9366 95.2748 84.9366 95.9156 84.6292 96.971 84.3701L97.8131 84.3913" fill="#F7AC80" transform="matrix(1.00145 0 0 1 594.17 6.90356)"/><path d="M104.93 86.5067C104.442 85.6857 106.886 83.0968 106.547 83.5043 106.547 83.5043 106.674 83.0167 107.187 82.9189 107.187 82.9189 107.439 82.9413 107.587 83.2735 107.587 83.2735 107.727 83.6091 107.93 83.8541 107.93 83.8541 107.926 83.966 107.75 84.0756L107.348 83.9401 106.91 84.9154C106.91 84.9154 106.206 86.2688 104.93 86.5067" fill="#52397C" transform="matrix(1.00145 0 0 1 594.17 6.90356)"/><path d="M107.3 83.105C107.3 83.105 106.466 85.0414 105.674 85.2205 105.674 85.2205 105.328 85.3371 105.518 84.9932 105.518 84.9932 105.871 84.3771 106.595 83.5656L107.3 83.105" fill="#F7AC80" transform="matrix(1.00145 0 0 1 594.17 6.90356)"/><path d="M105.037 29.5258C105.041 29.8132 105.038 29.9781 104.877 30.2219 104.736 30.4375 104.621 30.5152 104.622 30.7755 104.622 31.1925 104.945 31.6083 105.006 32.0335 105.144 32.9911 104.521 34.3975 103.303 34.6107 101.916 34.8522 101.209 33.9746 100.711 32.957 99.9793 31.4611 100.607 29.8933 101.118 28.4516 101.262 28.044 101.236 27.7331 101.682 27.4987 102.405 27.1206 103.281 27.408 103.94 27.7814 104.615 28.163 105.026 28.8214 105.037 29.5258" fill="#45140A" transform="matrix(1.00145 0 0 1 594.17 6.90356)"/><path d="M95.1158 54.1811 96.4562 84.416 97.9757 84.416 100.175 54.1811 95.1158 54.1811" fill="#164485" transform="matrix(1.00145 0 0 1 594.17 6.90356)"/><path d="M102.606 69.2202 107.551 82.9919 106.289 83.6869 99.3997 69.9764 98.4445 59.0033 97.5434 54.1811 103.639 54.1811C103.639 54.1811 104.346 55.7807 103.642 59.0976L102.606 69.2202" fill="#1E5BB0" transform="matrix(1.00145 0 0 1 594.17 6.90356)"/><path d="M100.516 39.526 98.2831 39.526 98.2831 36.5377 100.516 36.5377 100.516 39.526" fill="#F7AC80" transform="matrix(1.00145 0 0 1 594.17 6.90356)"/><path d="M104.453 40.8193C103.832 39.8581 102.856 39.5978 102.856 39.5978L100.516 38.7309 98.2831 38.7309 95.945 39.5978C95.945 39.5978 94.9686 39.8581 94.3478 40.8193L104.453 40.8193" fill="#F7AC80" transform="matrix(1.00145 0 0 1 594.17 6.90356)"/><path d="M95.9498 45.1609 95.8214 47.3471 94.9321 54.7371 103.982 54.7276C103.862 53.4226 103.256 52.2553 102.721 51.0845 102.092 49.7064 102.256 48.161 102.582 46.724 102.757 45.9572 102.986 44.9925 103.427 44.3211L104.912 42.0608C104.611 40.0643 102.856 39.5978 102.856 39.5978L101.071 38.9359 98.9628 39.7745 97.6765 38.9559 95.945 39.5978C95.945 39.5978 94.6211 39.9429 94.3478 40.8193 94.3478 40.8193 94.6282 43.5578 95.9498 45.1609" fill="#7AC1EC" transform="matrix(1.00145 0 0 1 594.17 6.90356)"/><path d="M101.896 35.2903C101.8 35.5094 101.67 35.712 101.485 35.8899 100.666 36.6779 99.5705 37.2303 98.4209 37.2303 95.4197 35.9193 96.3938 30.143 96.3938 30.143 96.8438 27.3785 99.2089 27.3844 99.2089 27.3844 100.996 27.3067 102.626 28.1501 102.9 30.0323 103.005 30.7532 102.866 31.5282 102.83 32.2491 102.804 32.7779 102.739 33.3068 102.568 33.8121 102.396 34.328 102.111 34.7933 101.896 35.2903" fill="#F7AC80" transform="matrix(1.00145 0 0 1 594.17 6.90356)"/><path d="M98.2702 36.8934C99.4327 37.1561 100.624 36.3139 101.628 35.7309 101.585 35.7862 101.538 35.8392 101.485 35.8899 100.666 36.6779 99.5705 37.2303 98.4209 37.2303 98.0782 37.0807 97.7908 36.871 97.5434 36.6202 97.779 36.7427 98.0216 36.8369 98.2702 36.8934" fill="#E8A178" transform="matrix(1.00145 0 0 1 594.17 6.90356)"/><path d="M96.2407 32.8722C96.1842 31.9605 96.2654 31.2302 96.8308 30.5023 97.3585 29.8238 98.1818 29.739 98.3385 28.7555 98.4728 27.9074 99.5658 26.7331 98.5022 26.8838 96.7613 27.1324 95.8826 29.0476 95.839 29.9604 95.799 30.7932 95.7931 31.8085 96.1912 32.5211L96.2407 32.8722" fill="#611E11" transform="matrix(1.00145 0 0 1 594.17 6.90356)"/><path d="M100.715 31.0135C102.068 31.8168 102.407 33.6931 101.962 35.1478 102.938 34.3669 103.414 33.6825 103.725 32.7084 104.05 31.6943 104.038 31.1218 103.936 30.0488 103.68 27.3797 100.929 25.9404 97.9851 27.1312 96.8956 27.5717 97.1076 28.9663 97.9368 29.719 98.7048 30.4151 99.845 30.4964 100.715 31.0135" fill="#611E11" transform="matrix(1.00145 0 0 1 594.17 6.90356)"/><path d="M101.859 32.9805C101.859 32.9805 102.096 31.997 102.852 32.4034 102.852 32.4034 103.194 32.5753 102.946 33.2514 102.946 33.2514 102.588 34.2232 101.859 33.8675L101.859 32.9805" fill="#F7AC80" transform="matrix(1.00145 0 0 1 594.17 6.90356)"/><path d="M89.5845 56.8349 88.8813 56.8349 88.6081 55.3166 89.5845 55.3166 89.5845 56.8349M89.5845 54.412 88.4455 54.412 87.6952 50.2388 87.6952 49.0891 89.5845 49.0891 89.5845 54.412M89.5845 48.1845 87.6952 48.1845 87.6952 46.8323C88.5209 46.7676 89.4479 46.3447 89.4479 46.3447L89.5845 46.2717 89.5845 48.1845M87.6952 44.6038 87.6952 42.8617 89.5845 42.8617 89.5845 43.6403 88.6493 44.2634C88.3336 44.4106 87.9991 44.5213 87.6952 44.6038M89.5845 41.9571 87.6952 41.9571 87.6952 31.1937 89.5845 31.1937 89.5845 41.9571" fill="#6E95CF" transform="matrix(1.00145 0 0 1 594.17 6.90356)"/><path d="M53.2459 31.6048 87.6952 31.6048 87.6952 31.1937 53.2459 31.1937Z" fill="#293F90" transform="matrix(1.00145 0 0 1 594.17 6.90356)"/><path d="M87.0862 56.8349 56.7194 56.8349 53.2459 51.3047 53.2459 31.6048 87.6952 31.6048 87.6952 41.9571 86.2075 41.9571 85.8165 39.7769 84.9684 39.93 84.9413 39.7769 84.0508 39.9371 84.9508 44.9418 80.3252 45.2987C80.2357 45.1739 80.1203 45.0596 80.0084 44.9913 79.8517 44.8959 79.6845 44.8205 79.5231 44.7334L78.7375 44.327C78.7375 44.327 78.4524 44.4601 78.6126 44.7098 78.7728 44.9595 79.0896 44.9866 79.0896 44.9866 78.7233 44.9725 78.7787 44.9418 78.4206 44.9148 78.2592 44.9042 78.1167 44.8818 77.993 44.8818 77.7598 44.8818 77.6008 44.963 77.5396 45.3635 77.7634 46.2658 79.0602 46.38 79.0602 46.38 79.0967 46.3789 79.1332 46.3777 79.1697 46.3777 79.2333 46.3777 79.2993 46.38 79.3641 46.3812 79.43 46.3836 79.4948 46.3847 79.5608 46.3847 79.7222 46.3847 79.8835 46.3741 80.0355 46.3282 80.059 46.3211 80.0838 46.3129 80.1061 46.3023L85.2629 46.6816 87.0862 56.8349M87.6952 50.2388 87.4891 49.0891 87.6952 49.0891 87.6952 50.2388M87.6952 48.1845 87.3265 48.1845 87.0803 46.8158 87.4102 46.8406C87.4361 46.8406 87.4632 46.8418 87.4891 46.8418 87.5574 46.8418 87.6257 46.8382 87.6952 46.8323L87.6952 48.1845M86.7199 44.804 86.3701 42.8617 87.6952 42.8617 87.6952 44.6038C87.2229 44.7322 86.8295 44.7887 86.7199 44.804" fill="#49409C" transform="matrix(1.00145 0 0 1 594.17 6.90356)"/><path d="M56.7194 56.8349 53.2459 56.8349 53.2459 51.3047 56.7194 56.8349" fill="#4F47A1" transform="matrix(1.00145 0 0 1 594.17 6.90356)"/><path d="M87.9614 56.8349 87.0862 56.8349 85.2629 46.6816 86.1498 46.7475 86.4078 48.1845 86.0733 48.1845 86.0733 49.0891 86.5703 49.0891 87.5268 54.412 87.1922 54.412 87.1922 55.3166 87.6893 55.3166 87.9614 56.8349M84.9508 44.9418 84.0508 39.9371 84.9413 39.7769 84.9684 39.93 84.926 39.9371 85.2888 41.9571 84.9543 41.9571 84.9543 42.8617 85.4513 42.8617 85.813 44.8747 84.9508 44.9418" fill="#3D50A7" transform="matrix(1.00145 0 0 1 594.17 6.90356)"/><path d="M88.8813 56.8349 87.9614 56.8349 87.6893 55.3166 88.6081 55.3166 88.8813 56.8349M88.4455 54.412 87.5268 54.412 86.5703 49.0891 87.4891 49.0891 87.6952 50.2388 88.4455 54.412M87.3265 48.1845 86.4078 48.1845 86.1498 46.7475 87.0803 46.8158 87.3265 48.1845M85.813 44.8747 85.4513 42.8617 86.3701 42.8617 86.7199 44.804C86.6987 44.8064 86.6881 44.8076 86.6881 44.8076L85.813 44.8747M86.2075 41.9571 85.2888 41.9571 84.926 39.9371 84.9684 39.93 85.8165 39.7769 86.2075 41.9571" fill="#3D50A7" transform="matrix(1.00145 0 0 1 594.17 6.90356)"/><path d="M89.5845 42.8617 84.9543 42.8617 84.9543 41.9571 89.5845 41.9571 89.5845 42.8617" fill="#3D50A7" transform="matrix(1.00145 0 0 1 594.17 6.90356)"/><path d="M89.5845 49.0891 86.0733 49.0891 86.0733 48.1845 89.5845 48.1845 89.5845 49.0891" fill="#3D50A7" transform="matrix(1.00145 0 0 1 594.17 6.90356)"/><path d="M89.5845 55.3166 87.1922 55.3166 87.1922 54.412 89.5845 54.412 89.5845 55.3166" fill="#3D50A7" transform="matrix(1.00145 0 0 1 594.17 6.90356)"/><path d="M79.5608 46.3847C79.4948 46.3847 79.43 46.3836 79.3641 46.3812 79.2993 46.38 79.2333 46.3777 79.1697 46.3777 79.1332 46.3777 79.0967 46.3789 79.0602 46.38 79.0602 46.38 77.7634 46.2658 77.5396 45.3635 77.6008 44.963 77.7598 44.8818 77.993 44.8818 78.1167 44.8818 78.2592 44.9042 78.4206 44.9148 78.7787 44.9418 78.7233 44.9725 79.0896 44.9866 79.0896 44.9866 78.7728 44.9595 78.6126 44.7098 78.4524 44.4601 78.7375 44.327 78.7375 44.327L79.5231 44.7334C79.6845 44.8205 79.8517 44.8959 80.0084 44.9913 80.1203 45.0596 80.2357 45.1739 80.3252 45.2987L80.0084 46.2952 80.1061 46.3023C80.0838 46.3129 80.059 46.3211 80.0355 46.3282 79.8835 46.3741 79.7222 46.3847 79.5608 46.3847" fill="#92767C" transform="matrix(1.00145 0 0 1 594.17 6.90356)"/><path d="M87.4891 46.8418C87.4632 46.8418 87.4361 46.8406 87.4102 46.8406L87.0803 46.8158 86.1498 46.7475 85.2629 46.6816 80.1061 46.3023 80.0084 46.2952 80.3252 45.2987 84.9508 44.9418 85.813 44.8747 86.6881 44.8076C86.6881 44.8076 86.6987 44.8064 86.7199 44.804 86.8295 44.7887 87.2229 44.7322 87.6952 44.6038 87.9991 44.5213 88.3336 44.4106 88.6493 44.2634L89.5845 43.6403 89.5845 46.2717 89.4479 46.3447C89.4479 46.3447 88.5209 46.7676 87.6952 46.8323 87.6257 46.8382 87.5574 46.8418 87.4891 46.8418" fill="#92767C" transform="matrix(1.00145 0 0 1 594.17 6.90356)"/><path d="M87.9308 54.9632 51.5921 54.9632 51.5921 29.322 87.9308 29.322 87.9308 54.9632" fill="#ACE2F2" transform="matrix(1.00145 0 0 1 594.17 6.90356)"/><path d="M87.9308 31.7237 51.5921 31.7237 51.5921 29.322 87.9308 29.322 87.9308 31.7237" fill="#677BC4" transform="matrix(1.00145 0 0 1 594.17 6.90356)"/><path d="M83.4395 30.4493C83.4395 30.8203 83.1392 31.1218 82.7681 31.1218 82.3971 31.1218 82.0968 30.8203 82.0968 30.4493 82.0968 30.0782 82.3971 29.7779 82.7681 29.7779 83.1392 29.7779 83.4395 30.0782 83.4395 30.4493" fill="#ACE4F7" transform="matrix(1.00145 0 0 1 594.17 6.90356)"/><path d="M85.3206 30.4493C85.3206 30.8203 85.0202 31.1218 84.6492 31.1218 84.2782 31.1218 83.9778 30.8203 83.9778 30.4493 83.9778 30.0782 84.2782 29.7779 84.6492 29.7779 85.0202 29.7779 85.3206 30.0782 85.3206 30.4493" fill="#6347A5" transform="matrix(1.00145 0 0 1 594.17 6.90356)"/><path d="M87.118 30.4493C87.118 30.8203 86.8177 31.1218 86.4467 31.1218 86.0756 31.1218 85.7753 30.8203 85.7753 30.4493 85.7753 30.0782 86.0756 29.7779 86.4467 29.7779 86.8177 29.7779 87.118 30.0782 87.118 30.4493" fill="#653082" transform="matrix(1.00145 0 0 1 594.17 6.90356)"/><path d="M84.9366 35.2256C84.9366 35.4588 84.7482 35.6472 84.5161 35.6472L65.1377 35.6472C64.9057 35.6472 64.7184 35.4588 64.7184 35.2256 64.7184 34.9947 64.9057 34.8062 65.1377 34.8062L84.5161 34.8062C84.7482 34.8062 84.9366 34.9947 84.9366 35.2256" fill="#FFFFFF" transform="matrix(1.00145 0 0 1 594.17 6.90356)"/><path d="M84.9366 37.5448C84.9366 37.7768 84.7482 37.9653 84.5161 37.9653L65.1377 37.9653C64.9057 37.9653 64.7184 37.7768 64.7184 37.5448 64.7184 37.3116 64.9057 37.1231 65.1377 37.1231L84.5161 37.1231C84.7482 37.1231 84.9366 37.3116 84.9366 37.5448" fill="#FFFFFF" transform="matrix(1.00145 0 0 1 594.17 6.90356)"/><path d="M84.9366 39.8617C84.9366 40.0949 84.7482 40.2833 84.5161 40.2833L65.1377 40.2833C64.9057 40.2833 64.7184 40.0949 64.7184 39.8617 64.7184 39.6308 64.9057 39.4423 65.1377 39.4423L84.5161 39.4423C84.7482 39.4423 84.9366 39.6308 84.9366 39.8617" fill="#FFFFFF" transform="matrix(1.00145 0 0 1 594.17 6.90356)"/><path d="M73.9953 42.1809C73.9953 42.4118 73.8069 42.6002 73.5748 42.6002L65.1377 42.6002C64.9057 42.6002 64.7184 42.4118 64.7184 42.1809 64.7184 41.9477 64.9057 41.7592 65.1377 41.7592L73.5748 41.7592C73.8069 41.7592 73.9953 41.9477 73.9953 42.1809" fill="#FFFFFF" transform="matrix(1.00145 0 0 1 594.17 6.90356)"/><path d="M74.6243 44.4342C74.6243 44.6674 74.4359 44.8559 74.2038 44.8559L54.5486 44.8559C54.3166 44.8559 54.1281 44.6674 54.1281 44.4342 54.1281 44.2033 54.3166 44.0149 54.5486 44.0149L74.2038 44.0149C74.4359 44.0149 74.6243 44.2033 74.6243 44.4342" fill="#FFFFFF" transform="matrix(1.00145 0 0 1 594.17 6.90356)"/><path d="M74.6243 46.7534C74.6243 46.9855 74.4359 47.1739 74.2038 47.1739L54.5486 47.1739C54.3166 47.1739 54.1281 46.9855 54.1281 46.7534 54.1281 46.5202 54.3166 46.3317 54.5486 46.3317L74.2038 46.3317C74.4359 46.3317 74.6243 46.5202 74.6243 46.7534" fill="#FFFFFF" transform="matrix(1.00145 0 0 1 594.17 6.90356)"/><path d="M74.6243 49.0703C74.6243 49.3035 74.4359 49.492 74.2038 49.492L54.5486 49.492C54.3166 49.492 54.1281 49.3035 54.1281 49.0703 54.1281 48.8394 54.3166 48.651 54.5486 48.651L74.2038 48.651C74.4359 48.651 74.6243 48.8394 74.6243 49.0703" fill="#FFFFFF" transform="matrix(1.00145 0 0 1 594.17 6.90356)"/><path d="M71.4146 51.3895C71.4146 51.6216 71.2261 51.81 70.9941 51.81L54.5486 51.81C54.3166 51.81 54.1281 51.6216 54.1281 51.3895 54.1281 51.1563 54.3166 50.9679 54.5486 50.9679L70.9941 50.9679C71.2261 50.9679 71.4146 51.1563 71.4146 51.3895" fill="#FFFFFF" transform="matrix(1.00145 0 0 1 594.17 6.90356)"/><path d="M85.3948 51.81 76.7633 51.81 76.7633 43.1774 85.3948 43.1774 85.3948 51.81" fill="#FFFFFF" transform="matrix(1.00145 0 0 1 594.17 6.90356)"/><path d="M63.1612 38.4423C63.1612 40.8782 61.1859 42.8535 58.7501 42.8535 56.3131 42.8535 54.3389 40.8782 54.3389 38.4423 54.3389 36.0065 56.3131 34.0312 58.7501 34.0312 61.1859 34.0312 63.1612 36.0065 63.1612 38.4423" fill="#FFFFFF" transform="matrix(1.00145 0 0 1 594.17 6.90356)"/><g clip-path="url(#clip4)"><g clip-path="url(#clip5)"><path d="M57.7748 34.8451C57.7748 34.8451 56.3637 35.2691 56.4956 37.5036L56.4956 42.3199 58.1023 42.3199 57.7748 34.8451" fill="#5C73C1" transform="matrix(1.00145 0 0 1 594.17 6.90356)"/></g></g><g clip-path="url(#clip6)"><g clip-path="url(#clip7)"><path d="M57.6146 36.2892 57.6146 43.2068 60.6842 43.2068 60.6842 37.3799C60.6842 37.3799 60.8856 35.1431 59.4191 34.8687 59.4191 34.8687 57.6146 34.5424 57.6146 36.2892" fill="#5C73C1" transform="matrix(1.00145 0 0 1 594.17 6.90356)"/></g></g><g clip-path="url(#clip8)"><g clip-path="url(#clip9)"><path d="M59.6724 41.7757 57.5369 41.7757 57.5369 40.718 59.6724 40.718 59.6724 41.7757" fill="#ACE4F7" transform="matrix(1.00145 0 0 1 594.17 6.90356)"/></g></g><g clip-path="url(#clip10)"><g clip-path="url(#clip11)"><path d="M62.0258 43.5178 60.5817 43.5178 60.3237 42.4766C60.3237 42.4766 60.1141 40.8935 61.1989 40.8723 61.1989 40.8723 61.7607 41.2669 61.915 42.1962 61.915 42.1962 62.0364 42.9371 62.0258 43.5178" fill="#ACE4F7" transform="matrix(1.00145 0 0 1 594.17 6.90356)"/></g></g><g clip-path="url(#clip12)"><g clip-path="url(#clip13)"><path d="M57.0115 43.5178 57.2059 42.7322C57.2059 42.7322 57.551 40.9771 56.4662 40.9536 56.4662 40.9536 55.6794 41.6026 55.7371 43.5178L57.0115 43.5178" fill="#ACE4F7" transform="matrix(1.00145 0 0 1 594.17 6.90356)"/></g></g><g clip-path="url(#clip14)"><g clip-path="url(#clip15)"><path d="M58.1023 40.513 59.4191 40.513 59.4191 38.5849 58.1023 38.5849 58.1023 40.513" fill="#ACE4F7" transform="matrix(1.00145 0 0 1 594.17 6.90356)"/></g></g><g clip-path="url(#clip16)"><g clip-path="url(#clip17)"><path d="M59.4191 39.3717 59.4191 38.5849 58.1023 38.5849 58.1023 39.7191C58.5369 39.7062 59.0516 39.6261 59.4191 39.3717" fill="#80D6F5" transform="matrix(1.00145 0 0 1 594.17 6.90356)"/></g></g><g clip-path="url(#clip18)"><g clip-path="url(#clip19)"><path d="M56.3555 41.1279C56.6511 40.6709 57.1164 40.5472 57.1164 40.5472L58.2283 40.1349 59.2919 40.1349 60.6524 40.5472C60.6524 40.5472 61.1176 40.6709 61.4133 41.1279L56.3555 41.1279" fill="#ACE4F7" transform="matrix(1.00145 0 0 1 594.17 6.90356)"/></g></g><g clip-path="url(#clip20)"><g clip-path="url(#clip21)"><path d="M56.6287 42.6956 56.6287 43.5178 60.9032 43.5178 60.8526 42.5614C60.8008 40.718 61.0057 40.718 61.0057 40.718 60.8137 40.5896 60.6524 40.5472 60.6524 40.5472L59.5805 40.2409C59.5805 40.2409 59.3484 41.241 58.4639 41.241 58.4639 41.241 57.7795 40.8723 57.9644 40.2327L57.1164 40.5472C57.1164 40.5472 56.7795 40.6497 56.4662 40.9536 56.4662 40.9536 56.6181 41.0478 56.6287 42.6956" fill="#63CCE8" transform="matrix(1.00145 0 0 1 594.17 6.90356)"/></g></g><g clip-path="url(#clip22)"><g clip-path="url(#clip23)"><path d="M59.5628 38.7392C59.5169 38.8428 59.4545 38.9394 59.3673 39.023 59.1482 39.2339 58.8926 39.4047 58.6123 39.5201 58.2672 39.6614 57.7477 39.6791 57.4733 39.3952 57.2518 39.1667 57.1305 38.8169 57.0339 38.5189 56.8466 37.9382 56.849 37.3033 56.8961 36.7002 56.9079 36.5636 56.922 36.4258 56.9444 36.2892 57.1588 34.9735 58.2848 34.977 58.2848 34.977 59.1329 34.9393 59.9091 35.341 60.0399 36.2373 60.0905 36.5801 60.0245 36.9476 60.0069 37.2915 59.9939 37.5436 59.9633 37.7945 59.8832 38.036 59.8007 38.2798 59.6653 38.5024 59.5628 38.7392" fill="#ACE4F7" transform="matrix(1.00145 0 0 1 594.17 6.90356)"/></g></g><g clip-path="url(#clip24)"><g clip-path="url(#clip25)"><path d="M59.6724 37.7356C59.6724 37.7356 59.7843 37.268 60.1447 37.4612 60.1447 37.4612 60.3072 37.5436 60.1894 37.864 60.1894 37.864 60.0198 38.3269 59.6724 38.1585L59.6724 37.7356" fill="#ACE4F7" transform="matrix(1.00145 0 0 1 594.17 6.90356)"/></g></g><g clip-path="url(#clip26)"><g clip-path="url(#clip27)"><path d="M56.8113 36.4399C56.75 34.6343 58.4639 34.7202 58.4639 34.7202 60.1482 34.7886 60.2318 35.5518 60.2318 35.5518 60.4368 36.52 60.1447 37.4612 60.1447 37.4612 59.7866 37.3834 59.7265 37.8616 59.7265 37.8616 59.7631 37.0948 59.7006 37.0477 59.7006 37.0477 59.1541 37.043 58.7607 36.9829 58.7607 36.9829L58.7359 36.4494 58.604 36.9558C58.604 36.9558 57.8302 36.9382 57.0257 36.7474 57.0257 36.7474 56.8113 36.7627 56.8113 37.414L56.8113 36.4399" fill="#5C73C1" transform="matrix(1.00145 0 0 1 594.17 6.90356)"/></g></g><path d="M79.8317 47.6439 79.8317 47.4931 79.5054 47.4931 79.5054 47.3176 79.6809 47.3176 79.6809 47.6439 79.8317 47.6439 79.8317 47.4931 79.8317 47.6439 79.9825 47.6439 79.9825 47.0161 79.2039 47.0161 79.2039 47.7947 79.9825 47.7947 79.9825 47.6439 79.8317 47.6439" fill="#5C73C1" transform="matrix(1.00145 0 0 1 594.17 6.90356)"/><path d="M80.8223 47.6439 80.8223 47.4931 80.496 47.4931 80.496 47.3176 80.6715 47.3176 80.6715 47.6439 80.8223 47.6439 80.8223 47.4931 80.8223 47.6439 80.9731 47.6439 80.9731 47.0161 80.1945 47.0161 80.1945 47.7947 80.9731 47.7947 80.9731 47.6439 80.8223 47.6439" fill="#5C73C1" transform="matrix(1.00145 0 0 1 594.17 6.90356)"/><path d="M81.8129 47.6439 81.8129 47.4931 81.4866 47.4931 81.4866 47.3176 81.6621 47.3176 81.6621 47.6439 81.8129 47.6439 81.8129 47.4931 81.8129 47.6439 81.9637 47.6439 81.9637 47.0161 81.1851 47.0161 81.1851 47.7947 81.9637 47.7947 81.9637 47.6439 81.8129 47.6439" fill="#5C73C1" transform="matrix(1.00145 0 0 1 594.17 6.90356)"/><path d="M82.8035 47.6439 82.8035 47.4931 82.4784 47.4931 82.4784 47.3176 82.6527 47.3176 82.6527 47.6439 82.8035 47.6439 82.8035 47.4931 82.8035 47.6439 82.9542 47.6439 82.9542 47.0161 82.1768 47.0161 82.1768 47.7947 82.9542 47.7947 82.9542 47.6439 82.8035 47.6439" fill="#5C73C1" transform="matrix(1.00145 0 0 1 594.17 6.90356)"/><path d="M79.8317 48.499 79.8317 48.3483 79.5054 48.3483 79.5054 48.1728 79.6809 48.1728 79.6809 48.499 79.8317 48.499 79.8317 48.3483 79.8317 48.499 79.9825 48.499 79.9825 47.8712 79.2039 47.8712 79.2039 48.6498 79.9825 48.6498 79.9825 48.499 79.8317 48.499" fill="#5C73C1" transform="matrix(1.00145 0 0 1 594.17 6.90356)"/><path d="M80.8223 48.499 80.8223 48.3483 80.496 48.3483 80.496 48.1728 80.6715 48.1728 80.6715 48.499 80.8223 48.499 80.8223 48.3483 80.8223 48.499 80.9731 48.499 80.9731 47.8712 80.1945 47.8712 80.1945 48.6498 80.9731 48.6498 80.9731 48.499 80.8223 48.499" fill="#5C73C1" transform="matrix(1.00145 0 0 1 594.17 6.90356)"/><path d="M81.8129 48.499 81.8129 48.3483 81.4866 48.3483 81.4866 48.1728 81.6621 48.1728 81.6621 48.499 81.8129 48.499 81.8129 48.3483 81.8129 48.499 81.9637 48.499 81.9637 47.8712 81.1851 47.8712 81.1851 48.6498 81.9637 48.6498 81.9637 48.499 81.8129 48.499" fill="#5C73C1" transform="matrix(1.00145 0 0 1 594.17 6.90356)"/><path d="M82.8035 48.499 82.8035 48.3483 82.4772 48.3483 82.4772 48.1728 82.6527 48.1728 82.6527 48.499 82.8035 48.499 82.8035 48.3483 82.8035 48.499 82.9542 48.499 82.9542 47.8712 82.1768 47.8712 82.1768 48.6498 82.9542 48.6498 82.9542 48.499 82.8035 48.499" fill="#5C73C1" transform="matrix(1.00145 0 0 1 594.17 6.90356)"/><path d="M79.8317 49.3542 79.8317 49.2034 79.5054 49.2034 79.5054 49.0279 79.6809 49.0279 79.6809 49.3542 79.8317 49.3542 79.8317 49.2034 79.8317 49.3542 79.9825 49.3542 79.9825 48.7264 79.2039 48.7264 79.2039 49.5049 79.9825 49.5049 79.9825 49.3542 79.8317 49.3542" fill="#5C73C1" transform="matrix(1.00145 0 0 1 594.17 6.90356)"/><path d="M80.8223 49.3542 80.8223 49.2034 80.496 49.2034 80.496 49.0279 80.6715 49.0279 80.6715 49.3542 80.8223 49.3542 80.8223 49.2034 80.8223 49.3542 80.9731 49.3542 80.9731 48.7264 80.1945 48.7264 80.1945 49.5049 80.9731 49.5049 80.9731 49.3542 80.8223 49.3542" fill="#5C73C1" transform="matrix(1.00145 0 0 1 594.17 6.90356)"/><path d="M81.8129 49.3542 81.8129 49.2034 81.4866 49.2034 81.4866 49.0279 81.6621 49.0279 81.6621 49.3542 81.8129 49.3542 81.8129 49.2034 81.8129 49.3542 81.9637 49.3542 81.9637 48.7264 81.1851 48.7264 81.1851 49.5049 81.9637 49.5049 81.9637 49.3542 81.8129 49.3542" fill="#5C73C1" transform="matrix(1.00145 0 0 1 594.17 6.90356)"/><path d="M82.8035 49.3542 82.8035 49.2034 82.4772 49.2034 82.4772 49.0279 82.6527 49.0279 82.6527 49.3542 82.8035 49.3542 82.8035 49.2034 82.8035 49.3542 82.9542 49.3542 82.9542 48.7264 82.1768 48.7264 82.1768 49.5049 82.9542 49.5049 82.9542 49.3542 82.8035 49.3542" fill="#5C73C1" transform="matrix(1.00145 0 0 1 594.17 6.90356)"/><path d="M83.6115 45.7982 83.6115 45.6474 83.1192 45.6474 83.1192 46.062C83.1192 46.0938 83.0932 46.1197 83.0614 46.1197 83.0296 46.1197 83.0025 46.0938 83.0025 46.062L83.0025 45.6474 81.7988 45.6474 81.7988 46.062C81.7988 46.0938 81.7717 46.1197 81.7399 46.1197 81.7081 46.1197 81.681 46.0938 81.681 46.062L81.681 45.6474 80.4772 45.6474 80.4772 46.062C80.4772 46.0938 80.4501 46.1197 80.4183 46.1197 80.3865 46.1197 80.3594 46.0938 80.3594 46.062L80.3594 45.6474 79.1556 45.6474 79.1556 46.062C79.1556 46.0926 79.1285 46.1197 79.0967 46.1197 79.0649 46.1197 79.0378 46.0938 79.0378 46.062L79.0378 45.6474 78.5466 45.6474C78.2392 45.6474 77.9895 45.8971 77.9895 46.2045L77.9895 46.7628 84.1686 46.7628 84.1686 46.2045C84.1686 45.8971 83.9189 45.6474 83.6115 45.6474L83.6115 45.9489C83.7517 45.9489 83.8671 46.0632 83.8671 46.2045L83.8671 46.4613 78.291 46.4613 78.291 46.2045C78.291 46.0632 78.4053 45.9489 78.5466 45.9489L78.7363 45.9489 78.7363 46.062C78.7363 46.2599 78.8976 46.4213 79.0967 46.4213 79.2958 46.4213 79.4571 46.2611 79.4571 46.062L79.4571 45.9489 80.0579 45.9489 80.0579 46.062C80.0579 46.2599 80.2192 46.4213 80.4183 46.4213 80.6173 46.4213 80.7787 46.2599 80.7787 46.062L80.7787 45.9489 81.3794 45.9489 81.3794 46.062C81.3794 46.2599 81.5396 46.4213 81.7399 46.4213 81.9389 46.4213 82.1003 46.2599 82.1003 46.062L82.1003 45.9489 82.701 45.9489 82.701 46.062C82.701 46.2599 82.8624 46.4213 83.0614 46.4213 83.2617 46.4213 83.4207 46.2599 83.4207 46.062L83.4207 45.9489 83.6115 45.9489 83.6115 45.7982" fill="#5C73C1" transform="matrix(1.00145 0 0 1 594.17 6.90356)"/><path d="M83.3441 49.5768 83.6457 49.5768 83.6457 49.1315 83.3441 49.1315Z" fill="#5C73C1" transform="matrix(1.00145 0 0 1 594.17 6.90356)"/><path d="M83.3441 48.9078 83.6457 48.9078 83.6457 48.4625 83.3441 48.4625Z" fill="#5C73C1" transform="matrix(1.00145 0 0 1 594.17 6.90356)"/><path d="M83.3441 48.2387 83.6457 48.2387 83.6457 47.7935 83.3441 47.7935Z" fill="#5C73C1" transform="matrix(1.00145 0 0 1 594.17 6.90356)"/><path d="M83.3441 47.5709 83.6457 47.5709 83.6457 47.1245 83.3441 47.1245Z" fill="#5C73C1" transform="matrix(1.00145 0 0 1 594.17 6.90356)"/><path d="M78.5407 48.4437 78.5407 49.8029 79.0967 49.8029 79.0967 49.5014 78.8423 49.5014 78.8423 48.4437 78.5407 48.4437" fill="#5C73C1" transform="matrix(1.00145 0 0 1 594.17 6.90356)"/><path d="M83.6115 45.7982 83.6115 45.6474 83.1192 45.6474 83.1192 46.062C83.1192 46.0938 83.0932 46.1197 83.0614 46.1197 83.0296 46.1197 83.0025 46.0938 83.0025 46.062L83.0025 45.6474 81.7988 45.6474 81.7988 46.062C81.7988 46.0938 81.7717 46.1197 81.7399 46.1197 81.7081 46.1197 81.681 46.0938 81.681 46.062L81.681 45.6474 80.4772 45.6474 80.4772 46.062C80.4772 46.0938 80.4501 46.1197 80.4183 46.1197 80.3865 46.1197 80.3594 46.0938 80.3594 46.062L80.3594 45.6474 79.1556 45.6474 79.1556 46.062C79.1556 46.0926 79.1285 46.1197 79.0967 46.1197 79.0649 46.1197 79.0378 46.0938 79.0378 46.062L79.0378 45.6474 78.5466 45.6474C78.2392 45.6474 77.9895 45.8971 77.9895 46.2045L77.9895 49.6168C77.9895 49.9243 78.2392 50.174 78.5466 50.174L83.6115 50.174C83.9189 50.174 84.1686 49.9243 84.1686 49.6168L84.1686 46.2045C84.1686 45.8971 83.9189 45.6474 83.6115 45.6474L83.6115 45.9489C83.7517 45.9489 83.8671 46.0632 83.8671 46.2045L83.8671 49.6168C83.8671 49.7582 83.7529 49.8724 83.6115 49.8724L78.5466 49.8724C78.4053 49.8724 78.291 49.7582 78.291 49.6168L78.291 46.2045C78.291 46.0632 78.4053 45.9489 78.5466 45.9489L78.7363 45.9489 78.7363 46.062C78.7363 46.2599 78.8976 46.4213 79.0967 46.4213 79.2958 46.4213 79.4571 46.2611 79.4571 46.062L79.4571 45.9489 80.0579 45.9489 80.0579 46.062C80.0579 46.2599 80.2192 46.4213 80.4183 46.4213 80.6173 46.4213 80.7787 46.2599 80.7787 46.062L80.7787 45.9489 81.3794 45.9489 81.3794 46.062C81.3794 46.2599 81.5396 46.4213 81.7399 46.4213 81.9389 46.4213 82.1003 46.2599 82.1003 46.062L82.1003 45.9489 82.701 45.9489 82.701 46.062C82.701 46.2599 82.8624 46.4213 83.0614 46.4213 83.2617 46.4213 83.4207 46.2599 83.4207 46.062L83.4207 45.9489 83.6115 45.9489 83.6115 45.7982" fill="#5C73C1" transform="matrix(1.00145 0 0 1 594.17 6.90356)"/><path d="M79.3064 46.062 79.1556 46.062C79.1556 46.0926 79.1285 46.1197 79.0967 46.1197 79.0649 46.1197 79.0378 46.0938 79.0378 46.062L79.0378 45.3706C79.0378 45.3376 79.0637 45.3117 79.0967 45.3117 79.1297 45.3117 79.1556 45.3388 79.1556 45.3706L79.1556 46.062 79.4571 46.062 79.4571 45.3706C79.4571 45.1704 79.2958 45.0102 79.0967 45.0102 78.8976 45.0102 78.7363 45.1715 78.7363 45.3706L78.7363 46.062C78.7363 46.2599 78.8976 46.4213 79.0967 46.4213 79.2958 46.4213 79.4571 46.2611 79.4571 46.062L79.3064 46.062" fill="#5C73C1" transform="matrix(1.00145 0 0 1 594.17 6.90356)"/><path d="M80.6279 46.062 80.4772 46.062C80.4772 46.0938 80.4501 46.1197 80.4183 46.1197 80.3865 46.1197 80.3594 46.0938 80.3594 46.062L80.3594 45.3706C80.3594 45.3376 80.3853 45.3117 80.4183 45.3117 80.4513 45.3117 80.4772 45.3388 80.4772 45.3706L80.4772 46.062 80.7787 46.062 80.7787 45.3706C80.7787 45.1704 80.6173 45.0102 80.4183 45.0102 80.2192 45.0102 80.0579 45.1715 80.0579 45.3706L80.0579 46.062C80.0579 46.2599 80.2192 46.4213 80.4183 46.4213 80.6173 46.4213 80.7787 46.2599 80.7787 46.062L80.6279 46.062" fill="#5C73C1" transform="matrix(1.00145 0 0 1 594.17 6.90356)"/><path d="M81.9495 46.062 81.7988 46.062C81.7988 46.0938 81.7717 46.1197 81.7399 46.1197 81.7081 46.1197 81.681 46.0938 81.681 46.062L81.681 45.3706C81.681 45.3376 81.7081 45.3117 81.7399 45.3117 81.7728 45.3117 81.7988 45.3376 81.7988 45.3706L81.7988 46.062 82.1003 46.062 82.1003 45.3706C82.1003 45.1715 81.9389 45.0102 81.7399 45.0102 81.5408 45.0102 81.3794 45.1715 81.3794 45.3706L81.3794 46.062C81.3794 46.2599 81.5396 46.4213 81.7399 46.4213 81.9389 46.4213 82.1003 46.2599 82.1003 46.062L81.9495 46.062" fill="#5C73C1" transform="matrix(1.00145 0 0 1 594.17 6.90356)"/><path d="M83.2699 46.062 83.1192 46.062C83.1192 46.0938 83.0932 46.1197 83.0614 46.1197 83.0296 46.1197 83.0025 46.0938 83.0025 46.062L83.0025 45.3706C83.0025 45.3376 83.0285 45.3117 83.0614 45.3117 83.0932 45.3117 83.1192 45.3376 83.1192 45.3706L83.1192 46.062 83.4207 46.062 83.4207 45.3706C83.4207 45.1715 83.2605 45.0102 83.0614 45.0102 82.8624 45.0102 82.701 45.1715 82.701 45.3706L82.701 46.062C82.701 46.2599 82.8624 46.4213 83.0614 46.4213 83.2617 46.4213 83.4207 46.2599 83.4207 46.062L83.2699 46.062" fill="#5C73C1" transform="matrix(1.00145 0 0 1 594.17 6.90356)"/><path d="M86.482 51.2376C86.3807 50.6275 86.7258 50.651 87.1805 50.5391 87.5291 50.4531 87.4867 50.5002 87.8401 50.4001 87.8401 50.4001 87.5291 50.472 87.2994 50.2835 87.0709 50.0962 87.3006 49.8807 87.3006 49.8807L88.1722 50.0256C88.3525 50.0585 88.535 50.0786 88.7152 50.121 88.9167 50.1693 89.1628 50.3259 89.2948 50.4873 89.5315 50.777 89.4526 51.1752 89.1522 51.3836 88.886 51.5698 88.5409 51.6239 88.2417 51.7335 88.2417 51.7335 86.972 52.0256 86.482 51.2376" fill="#F7AC80" transform="matrix(1.00145 0 0 1 594.17 6.90356)"/><path d="M89.1098 50.3153 96.2218 48.1692C96.2218 48.1692 97.1936 47.724 97.9192 47.0467L101.781 42.1597C101.781 42.1597 103.006 40.6061 104.355 41.2304 104.355 41.2304 105.803 42.4047 103.387 44.5308L99.322 48.7794C99.322 48.7794 98.3821 49.6404 97.534 49.8807L89.1157 51.3613 89.1098 50.3153" fill="#F7AC80" transform="matrix(1.00145 0 0 1 594.17 6.90356)"/><path d="M104.577 40.7922C104.577 40.7922 103.036 38.9359 101.331 42.1456L99.1877 44.7169C99.1877 44.7169 101.294 47.0797 102.718 46.539L104.634 43.5343C104.634 43.5343 105.403 42.2622 104.577 40.7922" fill="#66BBEB" transform="matrix(1.00145 0 0 1 594.17 6.90356)"/></g></g></g></g></svg>