<svg width="125" height="101" xmlns="http://www.w3.org/2000/svg" xmlns:xlink="http://www.w3.org/1999/xlink" overflow="hidden"><defs><clipPath id="clip0"><rect x="1182" y="20" width="125" height="101"/></clipPath><clipPath id="clip1"><rect x="1183" y="21" width="123" height="99"/></clipPath><clipPath id="clip2"><rect x="1183" y="21" width="123" height="99"/></clipPath><clipPath id="clip3"><rect x="1183" y="21" width="123" height="99"/></clipPath><clipPath id="clip4"><rect x="1206.74" y="75.9825" width="27.7362" height="40.9612"/></clipPath><clipPath id="clip5"><path d="M1234.3 116.721 1206.95 116.721 1206.95 76.2397 1214.2 86.9748 1210.07 86.9748 1210.07 100.672 1223.45 100.672 1234.3 116.721"/></clipPath></defs><g clip-path="url(#clip0)" transform="translate(-1182 -20)"><g clip-path="url(#clip1)"><g clip-path="url(#clip2)"><g clip-path="url(#clip3)"><path d="M77.0533 89.845 61.2596 89.845 61.2596 87.5693 77.0533 87.5693 77.0533 89.845M105.901 43.3588 103.621 43.3588 103.621 41.6123 105.901 41.6123 105.901 43.3588M105.901 40.1378 103.621 40.1378 103.621 39.5864 105.901 39.5864 105.901 40.1378M105.901 38.1131 103.621 38.1131 103.621 19.763 105.901 19.763 105.901 38.1131" fill="#433595" transform="matrix(1.00031 0 0 1 1173.02 3.51273)"/><path d="M49.6162 87.5693 103.621 87.5693 103.621 17.4885 49.6162 17.4885Z" fill="#D0EEFB" transform="matrix(1.00031 0 0 1 1173.02 3.51273)"/><path d="M68.9583 45.9915 54.8139 45.9915 54.8139 31.5111 68.9583 31.5111 68.9583 45.9915" fill="#FFFFFF" transform="matrix(1.00031 0 0 1 1173.02 3.51273)"/><path d="M65.9785 41.3981C65.9477 40.9156 65.4308 40.7618 65.4308 40.7618L63.8369 40.2215 63.16 39.9704C62.643 40.3187 62.0732 40.4467 61.8861 40.4812 61.6978 40.4467 61.1279 40.3187 60.611 39.9704L59.9328 40.2215 58.3364 40.7618C58.3364 40.7618 57.8232 40.9156 57.7924 41.3981L57.2878 44.1428 66.4819 44.1428 65.9785 41.3981" fill="#B9DDF5" transform="matrix(1.00031 0 0 1 1173.02 3.51273)"/><path d="M64.3145 36.3863C64.2837 38.0343 63.171 39.3488 61.8307 39.3242 60.4891 39.2996 59.4269 37.9445 59.4577 36.2952 59.4885 34.6471 60.5999 33.3351 61.9415 33.3597 63.2818 33.3843 64.3452 34.7382 64.3145 36.3863" fill="#B9DDF5" transform="matrix(1.00031 0 0 1 1173.02 3.51273)"/><path d="M98.4262 33.5727C98.4262 33.8767 98.18 34.1216 97.8773 34.1216L72.2002 34.1216C71.8962 34.1216 71.6513 33.8767 71.6513 33.5727 71.6513 33.2699 71.8962 33.0249 72.2002 33.0249L97.8773 33.0249C98.18 33.0249 98.4262 33.2699 98.4262 33.5727" fill="#A8DCF6" transform="matrix(1.00031 0 0 1 1173.02 3.51273)"/><path d="M98.4262 37.0251C98.4262 37.3278 98.18 37.574 97.8773 37.574L72.2002 37.574C71.8962 37.574 71.6513 37.3278 71.6513 37.0251 71.6513 36.7223 71.8962 36.4761 72.2002 36.4761L97.8773 36.4761C98.18 36.4761 98.4262 36.7223 98.4262 37.0251" fill="#A8DCF6" transform="matrix(1.00031 0 0 1 1173.02 3.51273)"/><path d="M98.4262 40.4775C98.4262 40.7802 98.18 41.0252 97.8773 41.0252L72.2002 41.0252C71.8962 41.0252 71.6513 40.7802 71.6513 40.4775 71.6513 40.1747 71.8962 39.9285 72.2002 39.9285L97.8773 39.9285C98.18 39.9285 98.4262 40.1747 98.4262 40.4775" fill="#A8DCF6" transform="matrix(1.00031 0 0 1 1173.02 3.51273)"/><path d="M98.4262 43.9286C98.4262 44.2326 98.18 44.4776 97.8773 44.4776L72.2002 44.4776C71.8962 44.4776 71.6513 44.2326 71.6513 43.9286 71.6513 43.6259 71.8962 43.3809 72.2002 43.3809L97.8773 43.3809C98.18 43.3809 98.4262 43.6259 98.4262 43.9286" fill="#A8DCF6" transform="matrix(1.00031 0 0 1 1173.02 3.51273)"/><path d="M98.4262 50.6907C98.4262 50.9947 98.18 51.2396 97.8773 51.2396L55.0871 51.2396C54.7843 51.2396 54.5382 50.9947 54.5382 50.6907 54.5382 50.3879 54.7843 50.1417 55.0871 50.1417L97.8773 50.1417C98.18 50.1417 98.4262 50.3879 98.4262 50.6907" fill="#A8DCF6" transform="matrix(1.00031 0 0 1 1173.02 3.51273)"/><path d="M98.4262 54.1431C98.4262 54.4459 98.18 54.6908 97.8773 54.6908L55.0871 54.6908C54.7843 54.6908 54.5382 54.4459 54.5382 54.1431 54.5382 53.8391 54.7843 53.5941 55.0871 53.5941L97.8773 53.5941C98.18 53.5941 98.4262 53.8391 98.4262 54.1431" fill="#A8DCF6" transform="matrix(1.00031 0 0 1 1173.02 3.51273)"/><path d="M98.4262 57.5943C98.4262 57.8983 98.18 58.1432 97.8773 58.1432L55.0871 58.1432C54.7843 58.1432 54.5382 57.8983 54.5382 57.5943 54.5382 57.2915 54.7843 57.0466 55.0871 57.0466L97.8773 57.0466C98.18 57.0466 98.4262 57.2915 98.4262 57.5943" fill="#A8DCF6" transform="matrix(1.00031 0 0 1 1173.02 3.51273)"/><path d="M98.4262 61.0467C98.4262 61.3507 98.18 61.5956 97.8773 61.5956L55.0871 61.5956C54.7843 61.5956 54.5382 61.3507 54.5382 61.0467 54.5382 60.7439 54.7843 60.499 55.0871 60.499L97.8773 60.499C98.18 60.499 98.4262 60.7439 98.4262 61.0467" fill="#A8DCF6" transform="matrix(1.00031 0 0 1 1173.02 3.51273)"/><path d="M98.4262 65.8197C98.4262 66.1225 98.18 66.3687 97.8773 66.3687L55.0871 66.3687C54.7843 66.3687 54.5382 66.1225 54.5382 65.8197 54.5382 65.5169 54.7843 65.2708 55.0871 65.2708L97.8773 65.2708C98.18 65.2708 98.4262 65.5169 98.4262 65.8197" fill="#A8DCF6" transform="matrix(1.00031 0 0 1 1173.02 3.51273)"/><path d="M98.4262 69.2721C98.4262 69.5749 98.18 69.8211 97.8773 69.8211L55.0871 69.8211C54.7843 69.8211 54.5382 69.5749 54.5382 69.2721 54.5382 68.9694 54.7843 68.7232 55.0871 68.7232L97.8773 68.7232C98.18 68.7232 98.4262 68.9694 98.4262 69.2721" fill="#A8DCF6" transform="matrix(1.00031 0 0 1 1173.02 3.51273)"/><path d="M98.4262 72.7245C98.4262 73.0273 98.18 73.2735 97.8773 73.2735L55.0871 73.2735C54.7843 73.2735 54.5382 73.0273 54.5382 72.7245 54.5382 72.4205 54.7843 72.1756 55.0871 72.1756L97.8773 72.1756C98.18 72.1756 98.4262 72.4205 98.4262 72.7245" fill="#A8DCF6" transform="matrix(1.00031 0 0 1 1173.02 3.51273)"/><path d="M98.4262 76.1757C98.4262 76.4797 98.18 76.7247 97.8773 76.7247L55.0871 76.7247C54.7843 76.7247 54.5382 76.4797 54.5382 76.1757 54.5382 75.8729 54.7843 75.628 55.0871 75.628L97.8773 75.628C98.18 75.628 98.4262 75.8729 98.4262 76.1757" fill="#A8DCF6" transform="matrix(1.00031 0 0 1 1173.02 3.51273)"/><path d="M90.0063 25.7361C90.0063 26.0389 89.7601 26.2851 89.4573 26.2851L63.7815 26.2851C63.4775 26.2851 63.2326 26.0389 63.2326 25.7361 63.2326 25.4333 63.4775 25.1872 63.7815 25.1872L89.4573 25.1872C89.7601 25.1872 90.0063 25.4333 90.0063 25.7361" fill="#A8DCF6" transform="matrix(1.00031 0 0 1 1173.02 3.51273)"/><path d="M61.2214 115.115C61.2214 115.873 60.606 116.488 59.8479 116.488L35.3327 116.488C34.5733 116.488 33.9579 115.873 33.9579 115.115L33.9579 70.6851C33.9579 69.9257 34.5733 69.3115 35.3327 69.3115L59.8479 69.3115C60.606 69.3115 61.2214 69.9257 61.2214 70.6851L61.2214 115.115" fill="#3EBCED" transform="matrix(1.00031 0 0 1 1173.02 3.51273)"/><path d="M33.921 113.208 61.2596 113.208 61.2596 72.727 33.921 72.727Z" fill="#544EAA" transform="matrix(1.00031 0 0 1 1173.02 3.51273)"/><g clip-path="url(#clip4)"><g clip-path="url(#clip5)"><path d="M33.921 113.208 61.2596 113.208 61.2596 72.727 33.921 72.727Z" fill="#443F8A" transform="matrix(1.00031 0 0 1 1173.02 3.51273)"/></g></g><path d="M44.5354 71.4002 49.1054 71.4002 49.1054 70.77 44.5354 70.77Z" fill="#544EAA" transform="matrix(1.00031 0 0 1 1173.02 3.51273)"/><path d="M49.5522 71.4002 50.6451 71.4002 50.6451 70.77 49.5522 70.77Z" fill="#544EAA" transform="matrix(1.00031 0 0 1 1173.02 3.51273)"/><path d="M51.6667 102.224 43.5139 102.224 43.5139 99.1647 51.6667 99.1647 51.6667 102.224" fill="#3EBCED" transform="matrix(1.00031 0 0 1 1173.02 3.51273)"/><path d="M51.6667 102.224 43.5139 102.224 43.5139 100.693 51.6667 100.693 51.6667 102.224" fill="#4591CD" transform="matrix(1.00031 0 0 1 1173.02 3.51273)"/><path d="M44.8382 100.031 45.0081 100.031 45.1311 100.9 45.2776 100.031 45.4376 100.031 45.1914 101.205 45.0708 101.205 44.8382 100.031" fill="#FFFFFF" transform="matrix(1.00031 0 0 1 1173.02 3.51273)"/><path d="M45.5225 100.031 45.6702 100.031 45.6702 101.205 45.5225 101.205 45.5225 100.031" fill="#FFFFFF" transform="matrix(1.00031 0 0 1 1173.02 3.51273)"/><path d="M45.8647 100.031 46.2942 100.031 46.2942 100.179 46.0235 100.179 46.0235 100.52 46.2561 100.52 46.2561 100.655 46.0235 100.655 46.0235 101.059 46.2942 101.059 46.2942 101.205 45.8647 101.205 45.8647 100.031" fill="#FFFFFF" transform="matrix(1.00031 0 0 1 1173.02 3.51273)"/><path d="M46.6487 101.205 46.5133 101.205 46.3041 100.031 46.4629 100.031 46.5859 100.912 46.709 100.031 46.8321 100.031 46.965 100.9 47.0758 100.031 47.2358 100.031 47.0278 101.205 46.8924 101.205 46.7693 100.336 46.6487 101.205" fill="#FFFFFF" transform="matrix(1.00031 0 0 1 1173.02 3.51273)"/><path d="M47.6764 100.031 47.8106 100.031 47.9829 100.888 48.1294 100.031 48.2771 100.031 48.3854 101.205 48.2266 101.205 48.1897 100.398 48.0432 101.205 47.9337 101.205 47.7749 100.398 47.738 101.205 47.5792 101.205 47.6764 100.031" fill="#FFFFFF" transform="matrix(1.00031 0 0 1 1173.02 3.51273)"/><path d="M48.7768 100.179C48.7226 100.179 48.6869 100.222 48.6697 100.308 48.6525 100.393 48.6438 100.498 48.6438 100.619 48.6438 100.797 48.6574 100.921 48.6845 100.991 48.7128 101.061 48.7472 101.097 48.7903 101.097 48.8383 101.097 48.8728 101.058 48.8937 100.978 48.9146 100.899 48.9245 100.779 48.9245 100.619 48.9245 100.461 48.9122 100.347 48.8876 100.28 48.8629 100.213 48.826 100.179 48.7768 100.179ZM48.7768 100.031C48.8814 100.032 48.9589 100.083 49.0082 100.181 49.0586 100.282 49.0832 100.436 49.0832 100.645 49.0832 100.815 49.0648 100.955 49.0254 101.066 48.9872 101.176 48.9134 101.23 48.8026 101.23 48.7042 101.23 48.6266 101.188 48.57 101.104 48.5122 101.02 48.4838 100.871 48.4838 100.658 48.4838 100.472 48.5035 100.323 48.5429 100.206 48.5835 100.09 48.6611 100.032 48.7768 100.032L48.7768 100.031" fill="#FFFFFF" transform="matrix(1.00031 0 0 1 1173.02 3.51273)"/><path d="M49.5313 100.5C49.551 100.467 49.5608 100.416 49.5608 100.35 49.5608 100.288 49.5534 100.243 49.5374 100.212 49.5214 100.181 49.4869 100.165 49.4328 100.165L49.4168 100.165 49.4008 100.167 49.4008 100.558C49.4673 100.553 49.5116 100.533 49.5313 100.5ZM49.242 100.031 49.45 100.031C49.5546 100.032 49.6285 100.056 49.6691 100.101 49.711 100.149 49.7319 100.228 49.7319 100.338 49.7319 100.416 49.7171 100.483 49.6888 100.535 49.6605 100.587 49.6211 100.619 49.5731 100.632L49.7922 101.205 49.6211 101.205 49.4008 100.606 49.4008 101.205 49.242 101.205 49.242 100.031" fill="#FFFFFF" transform="matrix(1.00031 0 0 1 1173.02 3.51273)"/><path d="M49.8907 100.031 50.319 100.031 50.319 100.179 50.0482 100.179 50.0482 100.52 50.2821 100.52 50.2821 100.655 50.0482 100.655 50.0482 101.059 50.319 101.059 50.319 101.205 49.8907 101.205 49.8907 100.031" fill="#FFFFFF" transform="matrix(1.00031 0 0 1 1173.02 3.51273)"/><path d="M58.7968 97.1597 50.4211 97.1597 41.1704 83.4621 58.7968 83.4621 58.7968 97.1597" fill="#3D387A" transform="matrix(1.00031 0 0 1 1173.02 3.51273)"/><path d="M50.4211 97.1597 37.0423 97.1597 37.0423 83.4621 41.1704 83.4621 50.4211 97.1597" fill="#322E64" transform="matrix(1.00031 0 0 1 1173.02 3.51273)"/><path d="M58.1383 96.3424 36.385 96.3424 36.385 81.7869 58.1383 81.7869 58.1383 96.3424" fill="#D0EEFB" transform="matrix(1.00031 0 0 1 1173.02 3.51273)"/><path d="M58.1383 83.1778 58.1383 81.7869 36.385 81.7869 36.385 83.1778 58.1383 83.1778" fill="#3EBCED" transform="matrix(1.00031 0 0 1 1173.02 3.51273)"/><path d="M50.3621 94.9036 44.16 94.9036 44.16 92.5774 50.3621 92.5774 50.3621 94.9036" fill="#3EBCED" transform="matrix(1.00031 0 0 1 1173.02 3.51273)"/><path d="M50.3621 94.9036 44.16 94.9036 44.16 93.7405 50.3621 93.7405 50.3621 94.9036" fill="#4591CD" transform="matrix(1.00031 0 0 1 1173.02 3.51273)"/><path d="M45.1681 93.2359 45.2973 93.2359 45.3908 93.8968 45.5028 93.2359 45.6247 93.2359 45.4376 94.1295 45.3453 94.1295 45.1681 93.2359" fill="#FFFFFF" transform="matrix(1.00031 0 0 1 1173.02 3.51273)"/><path d="M45.6887 93.2359 45.8019 93.2359 45.8019 94.1295 45.6887 94.1295 45.6887 93.2359" fill="#FFFFFF" transform="matrix(1.00031 0 0 1 1173.02 3.51273)"/><path d="M45.9496 93.2359 46.2758 93.2359 46.2758 93.3491 46.0702 93.3491 46.0702 93.6088 46.2475 93.6088 46.2475 93.711 46.0702 93.711 46.0702 94.0187 46.2758 94.0187 46.2758 94.1295 45.9496 94.1295 45.9496 93.2359" fill="#FFFFFF" transform="matrix(1.00031 0 0 1 1173.02 3.51273)"/><path d="M46.5453 94.1295 46.4419 94.1295 46.2844 93.2359 46.4038 93.2359 46.4973 93.9067 46.5909 93.2359 46.6844 93.2359 46.7866 93.8968 46.8703 93.2359 46.9921 93.2359 46.8333 94.1295 46.7312 94.1295 46.6376 93.4697 46.5453 94.1295" fill="#FFFFFF" transform="matrix(1.00031 0 0 1 1173.02 3.51273)"/><path d="M47.3269 93.2359 47.429 93.2359 47.5607 93.8882 47.6715 93.2359 47.7835 93.2359 47.866 94.1295 47.7454 94.1295 47.7171 93.5153 47.6063 94.1295 47.5226 94.1295 47.402 93.5153 47.3737 94.1295 47.253 94.1295 47.3269 93.2359" fill="#FFFFFF" transform="matrix(1.00031 0 0 1 1173.02 3.51273)"/><path d="M48.1638 93.3491C48.1232 93.3491 48.0949 93.3824 48.0826 93.4464 48.0691 93.5116 48.0629 93.5904 48.0629 93.6839 48.0629 93.8193 48.0728 93.9141 48.0937 93.967 48.1146 94.0211 48.1417 94.047 48.1737 94.047 48.2106 94.047 48.2377 94.0175 48.2537 93.9559 48.2685 93.8968 48.2771 93.8058 48.2771 93.6839 48.2771 93.5621 48.2672 93.4771 48.2488 93.4267 48.2291 93.375 48.202 93.3504 48.1638 93.3504ZM48.1638 93.2359C48.2438 93.2371 48.3029 93.2753 48.3411 93.3516 48.378 93.4279 48.3977 93.5448 48.3977 93.7036 48.3977 93.8341 48.3829 93.9399 48.3534 94.0236 48.3238 94.1073 48.2672 94.1491 48.1835 94.1491 48.1097 94.1491 48.0506 94.1159 48.0063 94.0519 47.9632 93.9891 47.9411 93.8747 47.9411 93.7134 47.9411 93.5731 47.9558 93.4574 47.9866 93.37 48.0174 93.2814 48.0765 93.2371 48.1638 93.2371L48.1638 93.2359" fill="#FFFFFF" transform="matrix(1.00031 0 0 1 1173.02 3.51273)"/><path d="M48.7374 93.5928C48.7534 93.5682 48.7608 93.5301 48.7608 93.4796 48.7608 93.4316 48.7546 93.3971 48.7423 93.3737 48.7312 93.3516 48.7042 93.3393 48.6635 93.3393L48.6512 93.3393 48.6389 93.3405 48.6389 93.6371C48.6894 93.6322 48.7226 93.6187 48.7374 93.5928ZM48.5183 93.2359 48.6758 93.2359C48.7559 93.2371 48.8112 93.2556 48.8432 93.29 48.874 93.3257 48.89 93.386 48.89 93.4697 48.89 93.5301 48.8802 93.5793 48.858 93.6199 48.8359 93.6605 48.8063 93.6839 48.7694 93.6937L48.9368 94.1295 48.8063 94.1295 48.6389 93.6741 48.6389 94.1295 48.5183 94.1295 48.5183 93.2359" fill="#FFFFFF" transform="matrix(1.00031 0 0 1 1173.02 3.51273)"/><path d="M49.0106 93.2359 49.3368 93.2359 49.3368 93.3491 49.1312 93.3491 49.1312 93.6088 49.3085 93.6088 49.3085 93.711 49.1312 93.711 49.1312 94.0187 49.3368 94.0187 49.3368 94.1295 49.0106 94.1295 49.0106 93.2359" fill="#FFFFFF" transform="matrix(1.00031 0 0 1 1173.02 3.51273)"/><path d="M55.4219 82.4811C55.4219 82.7051 55.241 82.8861 55.0182 82.8861 54.7966 82.8861 54.6169 82.7051 54.6169 82.4811 54.6169 82.2596 54.7966 82.0787 55.0182 82.0787 55.241 82.0787 55.4219 82.2596 55.4219 82.4811" fill="#D0EEFB" transform="matrix(1.00031 0 0 1 1173.02 3.51273)"/><path d="M56.505 82.4811C56.505 82.7051 56.3241 82.8861 56.1025 82.8861 55.8797 82.8861 55.6988 82.7051 55.6988 82.4811 55.6988 82.2596 55.8797 82.0787 56.1025 82.0787 56.3241 82.0787 56.505 82.2596 56.505 82.4811" fill="#D0EEFB" transform="matrix(1.00031 0 0 1 1173.02 3.51273)"/><path d="M57.5881 82.4811C57.5881 82.7051 57.4072 82.8861 57.1844 82.8861 56.9616 82.8861 56.7819 82.7051 56.7819 82.4811 56.7819 82.2596 56.9616 82.0787 57.1844 82.0787 57.4072 82.0787 57.5881 82.2596 57.5881 82.4811" fill="#D0EEFB" transform="matrix(1.00031 0 0 1 1173.02 3.51273)"/><path d="M44.0394 91.9977 38.0897 91.9977 38.0897 85.9065 44.0394 85.9065 44.0394 91.9977" fill="#FFFFFF" transform="matrix(1.00031 0 0 1 1173.02 3.51273)"/><path d="M42.7852 90.0653C42.7729 89.8623 42.5563 89.7983 42.5563 89.7983L41.8843 89.5706 41.6 89.4647C41.3821 89.6112 41.1433 89.6653 41.0646 89.6801 40.9858 89.6653 40.7458 89.6112 40.5279 89.4647L40.2436 89.5706 39.5716 89.7983C39.5716 89.7983 39.355 89.8623 39.3427 90.0653L39.131 91.2211 42.9981 91.2211 42.7852 90.0653" fill="#B9DDF5" transform="matrix(1.00031 0 0 1 1173.02 3.51273)"/><path d="M42.0861 87.957C42.0726 88.6511 41.6049 89.2038 41.0412 89.1927 40.4775 89.1829 40.0307 88.613 40.043 87.9188 40.0553 87.2271 40.5242 86.6732 41.0867 86.6843 41.6516 86.6954 42.0984 87.264 42.0861 87.957" fill="#B9DDF5" transform="matrix(1.00031 0 0 1 1173.02 3.51273)"/><path d="M56.4336 86.7742C56.4336 86.9022 56.3302 87.0056 56.2022 87.0056L45.4031 87.0056C45.2751 87.0056 45.1718 86.9022 45.1718 86.7742 45.1718 86.6462 45.2751 86.544 45.4031 86.544L56.2022 86.544C56.3302 86.544 56.4336 86.6462 56.4336 86.7742" fill="#A8DCF6" transform="matrix(1.00031 0 0 1 1173.02 3.51273)"/><path d="M56.4336 88.2265C56.4336 88.3533 56.3302 88.4567 56.2022 88.4567L45.4031 88.4567C45.2751 88.4567 45.1718 88.3533 45.1718 88.2265 45.1718 88.0997 45.2751 87.9951 45.4031 87.9951L56.2022 87.9951C56.3302 87.9951 56.4336 88.0997 56.4336 88.2265" fill="#A8DCF6" transform="matrix(1.00031 0 0 1 1173.02 3.51273)"/><path d="M56.4336 89.6776C56.4336 89.8056 56.3302 89.909 56.2022 89.909L45.4031 89.909C45.2751 89.909 45.1718 89.8056 45.1718 89.6776 45.1718 89.5509 45.2751 89.4475 45.4031 89.4475L56.2022 89.4475C56.3302 89.4475 56.4336 89.5509 56.4336 89.6776" fill="#A8DCF6" transform="matrix(1.00031 0 0 1 1173.02 3.51273)"/><path d="M56.4336 91.13C56.4336 91.258 56.3302 91.3614 56.2022 91.3614L45.4031 91.3614C45.2751 91.3614 45.1718 91.258 45.1718 91.13 45.1718 91.002 45.2751 90.8986 45.4031 90.8986L56.2022 90.8986C56.3302 90.8986 56.4336 91.002 56.4336 91.13" fill="#A8DCF6" transform="matrix(1.00031 0 0 1 1173.02 3.51273)"/><path d="M131.059 116.488 80.7321 116.488C79.7204 116.488 78.8995 115.669 78.8995 114.656L78.8995 114.464 129.214 114.464C130.225 114.464 131.045 113.643 131.045 112.631L131.045 49.0525 131.059 49.0525C132.07 49.0525 132.892 49.8734 132.892 50.8839L132.892 114.656C132.892 115.669 132.07 116.488 131.059 116.488M118.557 47.0278 116.951 47.0278 116.951 46.4752 118.557 47.0278M112.566 43.5766 110.719 42.9415 110.719 40.1378 112.566 40.1378 112.566 43.5766M108.471 41.6123 105.901 41.6123 105.901 40.1378 108.471 40.1378 108.471 41.6123" fill="#433595" transform="matrix(1.00031 0 0 1 1173.02 3.51273)"/><path d="M103.621 41.6123 105.901 41.6123 105.901 40.1378 103.621 40.1378Z" fill="#332F8B" transform="matrix(1.00031 0 0 1 1173.02 3.51273)"/><path d="M101.476 43.3588 99.6299 43.3588 99.6299 40.1378 103.621 40.1378 103.621 41.6123 101.476 41.6123 101.476 43.3588" fill="#5D4FA8" transform="matrix(1.00031 0 0 1 1173.02 3.51273)"/><path d="M131.045 112.631C131.045 113.643 130.225 114.464 129.214 114.464L78.8859 114.464C77.8742 114.464 77.0533 113.643 77.0533 112.631L77.0533 48.8592C77.0533 47.8475 77.8742 47.0278 78.8859 47.0278L129.214 47.0278C130.225 47.0278 131.045 47.8475 131.045 48.8592L131.045 112.631" fill="#3EBCED" transform="matrix(1.00031 0 0 1 1173.02 3.51273)"/><path d="M128.251 111.665 82.1488 111.665 82.1488 110.659 127.101 110.659 127.101 51.8378 128.251 51.8378 128.251 111.665" fill="#2A9CCB" transform="matrix(1.00031 0 0 1 1173.02 3.51273)"/><path d="M80.998 110.659 127.101 110.659 127.101 50.8322 80.998 50.8322Z" fill="#D0EEFB" transform="matrix(1.00031 0 0 1 1173.02 3.51273)"/><path d="M108.471 43.3588 99.6299 43.3588 99.6299 39.5864 108.471 39.5864 108.471 43.3588M110.719 42.9415 110.719 38.1131 97.3812 38.1131 97.3812 42.9415 91.1484 45.0856 91.1484 53.0612 116.951 53.0612 116.951 45.0856 110.719 42.9415" fill="#544EAA" transform="matrix(1.00031 0 0 1 1173.02 3.51273)"/><path d="M116.951 53.0612 91.1484 53.0612 91.1484 45.0856 97.3812 42.9415 93.7356 45.8216 93.7356 50.4753 116.951 50.4753 116.951 53.0612" fill="#3D387A" transform="matrix(1.00031 0 0 1 1173.02 3.51273)"/><path d="M97.5092 70.8882 85.4351 70.8882 85.4351 58.5247 97.5092 58.5247 97.5092 70.8882" fill="#FFFFFF" transform="matrix(1.00031 0 0 1 1173.02 3.51273)"/><path d="M94.9664 66.9656C94.9393 66.5545 94.4999 66.424 94.4999 66.424L93.1374 65.9625 92.5602 65.7471C92.1171 66.0437 91.6309 66.1533 91.4722 66.184 91.3121 66.1533 90.826 66.0437 90.3841 65.7471L89.8056 65.9625 88.4431 66.424C88.4431 66.424 88.005 66.5545 87.9791 66.9656L87.5483 69.3103 95.396 69.3103 94.9664 66.9656" fill="#B9DDF5" transform="matrix(1.00031 0 0 1 1173.02 3.51273)"/><path d="M93.5461 62.6873C93.519 64.0941 92.57 65.2179 91.4254 65.1957 90.2795 65.1748 89.3736 64.0178 89.3995 62.611 89.4253 61.203 90.3755 60.0829 91.5201 60.1039 92.6648 60.1248 93.5719 61.2817 93.5461 62.6873" fill="#B9DDF5" transform="matrix(1.00031 0 0 1 1173.02 3.51273)"/><path d="M97.5092 86.9268 85.4351 86.9268 85.4351 74.5646 97.5092 74.5646 97.5092 86.9268" fill="#FFFFFF" transform="matrix(1.00031 0 0 1 1173.02 3.51273)"/><path d="M94.9664 83.0042C94.9393 82.5931 94.4999 82.4627 94.4999 82.4627L93.1374 81.9999 92.5602 81.7857C92.1171 82.0823 91.6309 82.1931 91.4722 82.2214 91.3121 82.1931 90.826 82.0823 90.3841 81.7857L89.8056 81.9999 88.4431 82.4627C88.4431 82.4627 88.005 82.5931 87.9791 83.0042L87.5483 85.3477 95.396 85.3477 94.9664 83.0042" fill="#B9DDF5" transform="matrix(1.00031 0 0 1 1173.02 3.51273)"/><path d="M93.5461 78.7272C93.519 80.1328 92.57 81.2565 91.4254 81.2343 90.2795 81.2122 89.3736 80.0552 89.3995 78.6484 89.4253 77.2428 90.3755 76.1216 91.5201 76.1425 92.6648 76.1634 93.5719 77.3204 93.5461 78.7272" fill="#B9DDF5" transform="matrix(1.00031 0 0 1 1173.02 3.51273)"/><path d="M97.5092 102.965 85.4351 102.965 85.4351 90.6032 97.5092 90.6032 97.5092 102.965" fill="#FFFFFF" transform="matrix(1.00031 0 0 1 1173.02 3.51273)"/><path d="M94.9664 99.0441C94.9393 98.6305 94.4999 98.5 94.4999 98.5L93.1374 98.0385 92.5602 97.8243C92.1171 98.121 91.6309 98.2317 91.4722 98.2613 91.3121 98.2317 90.826 98.121 90.3841 97.8243L89.8056 98.0385 88.4431 98.5C88.4431 98.5 88.005 98.6305 87.9791 99.0441L87.5483 101.386 95.396 101.386 94.9664 99.0441" fill="#B9DDF5" transform="matrix(1.00031 0 0 1 1173.02 3.51273)"/><path d="M93.5461 94.7658C93.519 96.1726 92.57 97.2951 91.4254 97.2729 90.2795 97.252 89.3736 96.0951 89.3995 94.6882 89.4253 93.2814 90.3755 92.1589 91.5201 92.1811 92.6648 92.2032 93.5719 93.359 93.5461 94.7658" fill="#B9DDF5" transform="matrix(1.00031 0 0 1 1173.02 3.51273)"/><path d="M122.666 60.286C122.666 60.5445 122.455 60.755 122.197 60.755L100.277 60.755C100.019 60.755 99.8084 60.5445 99.8084 60.286 99.8084 60.0276 100.019 59.8183 100.277 59.8183L122.197 59.8183C122.455 59.8183 122.666 60.0276 122.666 60.286" fill="#A8DCF6" transform="matrix(1.00031 0 0 1 1173.02 3.51273)"/><path d="M122.666 63.2326C122.666 63.4923 122.455 63.7015 122.197 63.7015L100.277 63.7015C100.019 63.7015 99.8084 63.4923 99.8084 63.2326 99.8084 62.9741 100.019 62.7636 100.277 62.7636L122.197 62.7636C122.455 62.7636 122.666 62.9741 122.666 63.2326" fill="#A8DCF6" transform="matrix(1.00031 0 0 1 1173.02 3.51273)"/><path d="M122.666 66.1791C122.666 66.4388 122.455 66.6481 122.197 66.6481L100.277 66.6481C100.019 66.6481 99.8084 66.4388 99.8084 66.1791 99.8084 65.9219 100.019 65.7114 100.277 65.7114L122.197 65.7114C122.455 65.7114 122.666 65.9219 122.666 66.1791" fill="#A8DCF6" transform="matrix(1.00031 0 0 1 1173.02 3.51273)"/><path d="M122.666 69.1269C122.666 69.3854 122.455 69.5958 122.197 69.5958L100.277 69.5958C100.019 69.5958 99.8084 69.3854 99.8084 69.1269 99.8084 68.8672 100.019 68.658 100.277 68.658L122.197 68.658C122.455 68.658 122.666 68.8672 122.666 69.1269" fill="#A8DCF6" transform="matrix(1.00031 0 0 1 1173.02 3.51273)"/><path d="M122.666 76.3246C122.666 76.5843 122.455 76.7936 122.197 76.7936L100.277 76.7936C100.019 76.7936 99.8084 76.5843 99.8084 76.3246 99.8084 76.0662 100.019 75.8557 100.277 75.8557L122.197 75.8557C122.455 75.8557 122.666 76.0662 122.666 76.3246" fill="#A8DCF6" transform="matrix(1.00031 0 0 1 1173.02 3.51273)"/><path d="M122.666 79.2724C122.666 79.5297 122.455 79.7401 122.197 79.7401L100.277 79.7401C100.019 79.7401 99.8084 79.5297 99.8084 79.2724 99.8084 79.0127 100.019 78.8035 100.277 78.8035L122.197 78.8035C122.455 78.8035 122.666 79.0127 122.666 79.2724" fill="#A8DCF6" transform="matrix(1.00031 0 0 1 1173.02 3.51273)"/><path d="M122.666 82.219C122.666 82.4774 122.455 82.6867 122.197 82.6867L100.277 82.6867C100.019 82.6867 99.8084 82.4774 99.8084 82.219 99.8084 81.9593 100.019 81.75 100.277 81.75L122.197 81.75C122.455 81.75 122.666 81.9593 122.666 82.219" fill="#A8DCF6" transform="matrix(1.00031 0 0 1 1173.02 3.51273)"/><path d="M122.666 85.1643C122.666 85.424 122.455 85.6332 122.197 85.6332L100.277 85.6332C100.019 85.6332 99.8084 85.424 99.8084 85.1643 99.8084 84.907 100.019 84.6978 100.277 84.6978L122.197 84.6978C122.455 84.6978 122.666 84.907 122.666 85.1643" fill="#A8DCF6" transform="matrix(1.00031 0 0 1 1173.02 3.51273)"/><path d="M122.666 92.3633C122.666 92.623 122.455 92.831 122.197 92.831L100.277 92.831C100.019 92.831 99.8084 92.623 99.8084 92.3633 99.8084 92.1048 100.019 91.8943 100.277 91.8943L122.197 91.8943C122.455 91.8943 122.666 92.1048 122.666 92.3633" fill="#A8DCF6" transform="matrix(1.00031 0 0 1 1173.02 3.51273)"/><path d="M122.666 95.3098C122.666 95.5695 122.455 95.7787 122.197 95.7787L100.277 95.7787C100.019 95.7787 99.8084 95.5695 99.8084 95.3098 99.8084 95.0526 100.019 94.8421 100.277 94.8421L122.197 94.8421C122.455 94.8421 122.666 95.0526 122.666 95.3098" fill="#A8DCF6" transform="matrix(1.00031 0 0 1 1173.02 3.51273)"/><path d="M122.666 98.2576C122.666 98.5148 122.455 98.7253 122.197 98.7253L100.277 98.7253C100.019 98.7253 99.8084 98.5148 99.8084 98.2576 99.8084 97.9991 100.019 97.7886 100.277 97.7886L122.197 97.7886C122.455 97.7886 122.666 97.9991 122.666 98.2576" fill="#A8DCF6" transform="matrix(1.00031 0 0 1 1173.02 3.51273)"/><path d="M122.666 101.204C122.666 101.463 122.455 101.673 122.197 101.673L100.277 101.673C100.019 101.673 99.8084 101.463 99.8084 101.204 99.8084 100.946 100.019 100.736 100.277 100.736L122.197 100.736C122.455 100.736 122.666 100.946 122.666 101.204" fill="#A8DCF6" transform="matrix(1.00031 0 0 1 1173.02 3.51273)"/><path d="M10.0138 42.9674C10.0138 46.3619 12.7659 49.1128 16.1592 49.1128L40.5378 49.1128C43.9323 49.1128 46.6832 46.3619 46.6832 42.9674L46.6832 29.9098C46.6832 26.514 43.9323 23.7631 40.5378 23.7631L16.1592 23.7631C12.7659 23.7631 10.0138 26.514 10.0138 29.9098L10.0138 42.9674" fill="#544EAA" transform="matrix(1.00031 0 0 1 1173.02 3.51273)"/><path d="M19.4972 37.4952C18.8005 37.4952 18.1137 37.4275 17.4639 37.2946 14.4423 36.6829 12.0976 34.8219 12.1271 31.6341 12.18 26.3675 16.606 26.1718 20.7957 26.1103 20.9126 26.1091 21.0332 26.1078 21.1538 26.1078 23.1207 26.1078 25.5687 26.3688 26.6728 28.1793 26.9965 28.711 27.1885 29.3091 27.2672 29.9344 27.5368 32.0551 26.5103 34.4896 24.9976 35.7303 23.5145 36.9463 21.4702 37.4952 19.4972 37.4952" fill="#6159B1" transform="matrix(1.00031 0 0 1 1173.02 3.51273)"/><path d="M40.5378 49.1128 16.1592 49.1128C12.7659 49.1128 10.0138 46.3619 10.0138 42.9674L10.0138 39.6541C13.1278 43.9877 18.6405 46.0247 24.0167 46.0247 26.1583 46.0247 28.2765 45.7022 30.215 45.0733 34.7136 43.6111 38.3469 40.3544 39.4128 35.6121 39.9938 33.0262 39.9581 30.2827 38.9291 27.81 38.3309 26.3761 37.5297 25.0555 36.6829 23.7631L40.5378 23.7631C43.9323 23.7631 46.6832 26.514 46.6832 29.9098L46.6832 42.9674C46.6832 46.3619 43.9323 49.1128 40.5378 49.1128" fill="#443F8A" transform="matrix(1.00031 0 0 1 1173.02 3.51273)"/><path d="M40.5378 49.1128 41.6947 54.5049 33.5813 49.1128 40.5378 49.1128" fill="#544EAA" transform="matrix(1.00031 0 0 1 1173.02 3.51273)"/><path d="M41.6947 54.5049 33.5813 49.1128 40.5378 49.1128 41.6947 54.5049" fill="#443F8A" transform="matrix(1.00031 0 0 1 1173.02 3.51273)"/><path d="M33.884 36.438C33.884 37.2466 34.5388 37.9002 35.3462 37.9002 36.1536 37.9002 36.8097 37.2466 36.8097 36.438 36.8097 35.6306 36.1536 34.9758 35.3462 34.9758 34.5388 34.9758 33.884 35.6306 33.884 36.438" fill="#FFFFFF" transform="matrix(1.00031 0 0 1 1173.02 3.51273)"/><path d="M26.8857 36.438C26.8857 37.2466 27.5405 37.9002 28.3479 37.9002 29.1565 37.9002 29.8113 37.2466 29.8113 36.438 29.8113 35.6306 29.1565 34.9758 28.3479 34.9758 27.5405 34.9758 26.8857 35.6306 26.8857 36.438" fill="#FFFFFF" transform="matrix(1.00031 0 0 1 1173.02 3.51273)"/><path d="M19.8873 36.438C19.8873 37.2466 20.5421 37.9002 21.3508 37.9002 22.1582 37.9002 22.813 37.2466 22.813 36.438 22.813 35.6306 22.1582 34.9758 21.3508 34.9758 20.5421 34.9758 19.8873 35.6306 19.8873 36.438" fill="#FFFFFF" transform="matrix(1.00031 0 0 1 1173.02 3.51273)"/></g></g></g></g></svg>